<svg xmlns="http://www.w3.org/2000/svg" xmlns:xlink="http://www.w3.org/1999/xlink" width="150" zoomAndPan="magnify" viewBox="0 0 112.5 112.499997" height="150" preserveAspectRatio="xMidYMid meet" version="1.0"><defs><clipPath id="e7e8b415f9"><path d="M 14.800781 51 L 59.800781 51 L 59.800781 74.933594 L 14.800781 74.933594 Z M 14.800781 51 " clip-rule="nonzero"/></clipPath><clipPath id="265275af4b"><path d="M 69 65 L 75 65 L 75 70.5 L 69 70.5 Z M 69 65 " clip-rule="nonzero"/></clipPath><clipPath id="f20003ded4"><path d="M 17.023438 11.25 L 91.273438 11.25 L 91.273438 48 L 17.023438 48 Z M 17.023438 11.25 " clip-rule="nonzero"/></clipPath><clipPath id="721d1c5a9a"><path d="M 37.472656 67.339844 L 79.773438 67.339844 L 79.773438 112.003906 L 37.472656 112.003906 Z M 37.472656 67.339844 " clip-rule="nonzero"/></clipPath></defs><g clip-path="url(#e7e8b415f9)"><path fill="#ffffff" d="M 37.300781 51.027344 C 24.875 51.027344 14.800781 56.339844 14.800781 62.90625 C 14.800781 69.472656 24.875 74.789062 37.300781 74.789062 C 49.722656 74.789062 59.800781 69.472656 59.800781 62.90625 C 59.800781 56.339844 49.722656 51.027344 37.300781 51.027344 Z M 37.300781 52.214844 C 49.351562 52.214844 58.617188 57.308594 58.617188 62.90625 C 58.617188 68.503906 49.34375 73.601562 37.300781 73.601562 C 25.246094 73.601562 15.980469 68.503906 15.980469 62.90625 C 15.980469 57.308594 25.253906 52.214844 37.300781 52.214844 Z M 34.566406 54.566406 L 32.292969 66.34375 L 34.832031 66.34375 L 36.140625 59.59375 C 38.207031 59.59375 39.0625 59.511719 39.4375 59.917969 C 39.824219 60.335938 39.625 60.796875 38.554688 66.34375 L 41.128906 66.34375 C 42.242188 60.609375 42.734375 59.390625 41.703125 58.441406 C 40.726562 57.535156 38.695312 57.695312 36.503906 57.695312 L 37.105469 54.566406 Z M 23.921875 57.703125 L 21.648438 69.484375 L 24.199219 69.484375 L 24.804688 66.355469 C 27.664062 66.355469 29.441406 66.5625 31.082031 65.019531 C 32.898438 63.34375 33.371094 60.363281 32.074219 58.871094 C 31.398438 58.085938 30.3125 57.703125 28.839844 57.703125 Z M 43.878906 57.703125 L 41.601562 69.484375 L 44.160156 69.484375 L 44.765625 66.355469 C 47.769531 66.355469 49.433594 66.53125 51.039062 65.019531 C 52.855469 63.34375 53.328125 60.363281 52.035156 58.871094 C 51.359375 58.085938 50.273438 57.703125 48.800781 57.703125 Z M 27.929688 59.558594 C 29.523438 59.605469 30.4375 59.941406 30.050781 61.953125 C 29.5 64.785156 27.5625 64.492188 25.175781 64.492188 L 26.128906 59.5625 C 26.789062 59.5625 27.394531 59.542969 27.929688 59.558594 Z M 47.886719 59.558594 C 49.484375 59.605469 50.386719 59.941406 50.003906 61.953125 C 49.445312 64.824219 47.449219 64.492188 45.128906 64.492188 L 46.082031 59.5625 C 46.746094 59.5625 47.355469 59.542969 47.886719 59.558594 Z M 47.886719 59.558594 " fill-opacity="1" fill-rule="nonzero"/></g><path fill="#3f92a5" d="M 30.523438 46.320312 L 32.078125 46.320312 L 32.078125 57.972656 L 30.523438 57.972656 Z M 30.523438 46.320312 " fill-opacity="1" fill-rule="nonzero"/><path fill="#3f92a5" d="M 48.480469 63.375 L 46.925781 63.375 L 46.925781 57.425781 L 40.222656 57.425781 L 40.222656 46.320312 L 41.777344 46.320312 L 41.777344 55.855469 L 48.480469 55.855469 Z M 48.480469 63.375 " fill-opacity="1" fill-rule="nonzero"/><path fill="#3f92a5" d="M 53.453125 46.320312 L 55.007812 46.320312 L 55.007812 57.261719 L 53.453125 57.261719 Z M 53.453125 46.320312 " fill-opacity="1" fill-rule="nonzero"/><path fill="#3f92a5" d="M 66.929688 56.890625 L 58.746094 56.890625 L 58.746094 46.320312 L 60.300781 46.320312 L 60.300781 55.324219 L 66.929688 55.324219 Z M 66.929688 56.890625 " fill-opacity="1" fill-rule="nonzero"/><path fill="#3f92a5" d="M 72.738281 66.511719 L 71.183594 66.511719 L 71.183594 58.347656 L 78.0625 58.347656 L 78.0625 46.320312 L 79.617188 46.320312 L 79.617188 59.917969 L 72.738281 59.917969 Z M 72.738281 66.511719 " fill-opacity="1" fill-rule="nonzero"/><path fill="#3f92a5" d="M 31.300781 62.074219 C 29.859375 62.074219 28.691406 60.890625 28.691406 59.445312 C 28.691406 57.996094 29.863281 56.816406 31.300781 56.816406 C 32.734375 56.816406 33.90625 57.996094 33.90625 59.445312 C 33.90625 60.890625 32.738281 62.074219 31.300781 62.074219 Z M 31.300781 58.378906 C 30.71875 58.378906 30.246094 58.859375 30.246094 59.441406 C 30.246094 60.023438 30.722656 60.5 31.300781 60.5 C 31.875 60.5 32.351562 60.023438 32.351562 59.441406 C 32.351562 58.859375 31.878906 58.378906 31.300781 58.378906 Z M 31.300781 58.378906 " fill-opacity="1" fill-rule="nonzero"/><path fill="#3f92a5" d="M 47.703125 67.53125 C 46.265625 67.53125 45.097656 66.351562 45.097656 64.902344 C 45.097656 63.453125 46.269531 62.273438 47.703125 62.273438 C 49.140625 62.273438 50.308594 63.457031 50.308594 64.902344 C 50.3125 66.351562 49.140625 67.53125 47.703125 67.53125 Z M 47.703125 63.839844 C 47.121094 63.839844 46.652344 64.316406 46.652344 64.898438 C 46.652344 65.484375 47.125 65.960938 47.703125 65.960938 C 48.285156 65.960938 48.753906 65.480469 48.753906 64.898438 C 48.757812 64.316406 48.285156 63.839844 47.703125 63.839844 Z M 47.703125 63.839844 " fill-opacity="1" fill-rule="nonzero"/><path fill="#3f92a5" d="M 54.230469 61.554688 C 52.792969 61.554688 51.625 60.375 51.625 58.925781 C 51.625 57.476562 52.796875 56.296875 54.230469 56.296875 C 55.671875 56.296875 56.839844 57.480469 56.839844 58.925781 C 56.839844 60.375 55.667969 61.554688 54.230469 61.554688 Z M 54.230469 57.863281 C 53.652344 57.863281 53.179688 58.339844 53.179688 58.925781 C 53.179688 59.507812 53.65625 59.984375 54.230469 59.984375 C 54.8125 59.984375 55.285156 59.507812 55.285156 58.925781 C 55.285156 58.339844 54.8125 57.863281 54.230469 57.863281 Z M 54.230469 57.863281 " fill-opacity="1" fill-rule="nonzero"/><path fill="#3f92a5" d="M 68.355469 58.734375 C 66.917969 58.734375 65.75 57.554688 65.75 56.105469 C 65.75 54.65625 66.921875 53.476562 68.355469 53.476562 C 69.792969 53.476562 70.960938 54.660156 70.960938 56.105469 C 70.960938 57.558594 69.792969 58.734375 68.355469 58.734375 Z M 68.355469 55.042969 C 67.777344 55.042969 67.304688 55.519531 67.304688 56.101562 C 67.304688 56.6875 67.777344 57.164062 68.355469 57.164062 C 68.933594 57.164062 69.40625 56.6875 69.40625 56.101562 C 69.40625 55.519531 68.9375 55.042969 68.355469 55.042969 Z M 68.355469 55.042969 " fill-opacity="1" fill-rule="nonzero"/><g clip-path="url(#265275af4b)"><path fill="#3f92a5" d="M 71.960938 70.511719 C 70.519531 70.511719 69.351562 69.332031 69.351562 67.882812 C 69.351562 66.433594 70.523438 65.25 71.960938 65.25 C 73.394531 65.25 74.566406 66.433594 74.566406 67.882812 C 74.566406 69.332031 73.398438 70.511719 71.960938 70.511719 Z M 71.960938 66.820312 C 71.378906 66.820312 70.90625 67.296875 70.90625 67.882812 C 70.90625 68.46875 71.382812 68.945312 71.960938 68.945312 C 72.535156 68.945312 73.011719 68.464844 73.011719 67.882812 C 73.011719 67.296875 72.539062 66.820312 71.960938 66.820312 Z M 71.960938 66.820312 " fill-opacity="1" fill-rule="nonzero"/></g><g clip-path="url(#f20003ded4)"><path fill="#5fc8d3" d="M 91.285156 37.371094 C 91.285156 42.71875 86.988281 47.050781 81.683594 47.050781 L 30.398438 47.050781 C 23.007812 47.050781 17.023438 41.007812 17.023438 33.558594 C 17.023438 26.109375 23.007812 20.066406 30.398438 20.066406 C 31.832031 20.066406 33.210938 20.296875 34.5 20.714844 C 37.488281 15.082031 43.375 11.253906 50.148438 11.253906 C 57.230469 11.253906 63.351562 15.445312 66.191406 21.5 C 67.652344 20.589844 69.371094 20.0625 71.210938 20.0625 C 75.828125 20.0625 79.691406 23.359375 80.609375 27.742188 C 80.960938 27.703125 81.316406 27.683594 81.679688 27.683594 C 86.988281 27.6875 91.285156 32.019531 91.285156 37.371094 Z M 91.285156 37.371094 " fill-opacity="1" fill-rule="nonzero"/></g><path fill="#5271ff" d="M 58.390625 74.921875 C 60.980469 74.921875 63.085938 77.039062 63.085938 79.648438 C 63.085938 82.253906 60.980469 84.363281 58.390625 84.363281 C 55.796875 84.363281 53.695312 82.25 53.695312 79.648438 C 53.695312 77.039062 55.796875 74.921875 58.390625 74.921875 " fill-opacity="1" fill-rule="nonzero"/><g clip-path="url(#721d1c5a9a)"><path fill="#5271ff" d="M 69.625 101.601562 L 68.476562 110.871094 L 48.371094 110.871094 L 47.222656 101.601562 Z M 78.476562 91.167969 C 77.296875 90.558594 75.851562 91.019531 75.242188 92.207031 L 74.054688 94.515625 L 67.207031 86.984375 C 67.070312 86.828125 66.90625 86.707031 66.738281 86.59375 C 66.082031 86.054688 65 85.667969 63.28125 85.558594 L 61.382812 85.558594 L 61.382812 100.113281 L 55.523438 100.113281 L 55.523438 85.558594 L 44.464844 85.574219 L 49.359375 76.765625 C 49.980469 75.648438 49.679688 74.265625 48.71875 73.488281 L 58.496094 68.75 C 58.867188 68.574219 59.015625 68.128906 58.84375 67.757812 C 58.664062 67.390625 58.226562 67.234375 57.855469 67.414062 L 45.980469 73.164062 C 45.976562 73.164062 45.972656 73.167969 45.972656 73.171875 C 45.511719 73.390625 45.113281 73.753906 44.84375 74.234375 L 37.796875 86.914062 C 37.351562 87.714844 37.363281 88.703125 37.828125 89.496094 C 38.292969 90.289062 39.140625 90.777344 40.054688 90.777344 C 40.058594 90.777344 49.191406 90.765625 49.191406 90.765625 L 49.191406 100.117188 L 45.550781 100.117188 L 46.878906 110.871094 L 40.761719 110.871094 L 40.761719 112.339844 L 75.960938 112.339844 L 75.960938 110.871094 L 69.964844 110.871094 L 71.292969 100.117188 L 67.617188 100.117188 L 67.617188 94.585938 L 72.835938 100.320312 C 73.292969 100.824219 73.9375 101.109375 74.605469 101.109375 C 74.707031 101.109375 74.816406 101.101562 74.917969 101.085938 C 75.695312 100.984375 76.375 100.5 76.734375 99.800781 L 79.503906 94.421875 C 80.113281 93.242188 79.652344 91.785156 78.476562 91.171875 L 78.476562 91.167969 " fill-opacity="1" fill-rule="nonzero"/></g></svg>