<svg xmlns="http://www.w3.org/2000/svg" xmlns:xlink="http://www.w3.org/1999/xlink" width="150" zoomAndPan="magnify" viewBox="0 0 112.5 112.499997" height="150" preserveAspectRatio="xMidYMid meet" version="1.0"><defs><filter x="0%" y="0%" width="100%" height="100%" id="f17bf4bbda"><feColorMatrix values="0 0 0 0 1 0 0 0 0 1 0 0 0 0 1 0 0 0 1 0" color-interpolation-filters="sRGB"/></filter><clipPath id="6a36827370"><path d="M 5.945312 63 L 89 63 L 89 112.003906 L 5.945312 112.003906 Z M 5.945312 63 " clip-rule="nonzero"/></clipPath><clipPath id="13e5b4b9b4"><path d="M 5.945312 63 L 89 63 L 89 90 L 5.945312 90 Z M 5.945312 63 " clip-rule="nonzero"/></clipPath><clipPath id="d6bc7880d7"><path d="M 5.945312 76 L 89 76 L 89 112.003906 L 5.945312 112.003906 Z M 5.945312 76 " clip-rule="nonzero"/></clipPath><clipPath id="aaee8e798a"><path d="M 5.945312 35 L 89 35 L 89 85 L 5.945312 85 Z M 5.945312 35 " clip-rule="nonzero"/></clipPath><clipPath id="15115df192"><path d="M 5.945312 35 L 89 35 L 89 62 L 5.945312 62 Z M 5.945312 35 " clip-rule="nonzero"/></clipPath><clipPath id="2e465e7630"><path d="M 5.945312 48 L 89 48 L 89 85 L 5.945312 85 Z M 5.945312 48 " clip-rule="nonzero"/></clipPath><clipPath id="c162f57b2c"><path d="M 5.945312 7.347656 L 89 7.347656 L 89 57 L 5.945312 57 Z M 5.945312 7.347656 " clip-rule="nonzero"/></clipPath><clipPath id="121e4e49a8"><path d="M 5.945312 7.347656 L 89 7.347656 L 89 34 L 5.945312 34 Z M 5.945312 7.347656 " clip-rule="nonzero"/></clipPath><clipPath id="9703bf159d"><path d="M 5.945312 20 L 89 20 L 89 57 L 5.945312 57 Z M 5.945312 20 " clip-rule="nonzero"/></clipPath><clipPath id="20d66f75cf"><path d="M 11 7.347656 L 83 7.347656 L 83 112.003906 L 11 112.003906 Z M 11 7.347656 " clip-rule="nonzero"/></clipPath><mask id="e6d2e786bf"><g filter="url(#f17bf4bbda)"><rect x="-11.25" width="135" fill="#000000" y="-11.25" height="134.999996" fill-opacity="0.1569"/></g></mask><clipPath id="2a151b90ef"><path d="M 2 0.40625 L 56 0.40625 L 56 105.003906 L 2 105.003906 Z M 2 0.40625 " clip-rule="nonzero"/></clipPath><clipPath id="f121566b6b"><path d="M 37 0.40625 L 70 0.40625 L 70 103 L 37 103 Z M 37 0.40625 " clip-rule="nonzero"/></clipPath><clipPath id="d74b95127d"><rect x="0" width="72" y="0" height="106"/></clipPath><clipPath id="df03ccada9"><path d="M 66 69 L 109.445312 69 L 109.445312 112.003906 L 66 112.003906 Z M 66 69 " clip-rule="nonzero"/></clipPath><clipPath id="e9b4992a57"><path d="M 81.714844 87.523438 L 95.964844 87.523438 L 95.964844 95 L 81.714844 95 Z M 81.714844 87.523438 " clip-rule="nonzero"/></clipPath><clipPath id="2798c7ad82"><path d="M 94 93 L 95.964844 93 L 95.964844 95 L 94 95 Z M 94 93 " clip-rule="nonzero"/></clipPath><clipPath id="9bed1adee3"><path d="M 81.714844 87.523438 L 95.964844 87.523438 L 95.964844 95.023438 L 81.714844 95.023438 Z M 81.714844 87.523438 " clip-rule="nonzero"/></clipPath><clipPath id="26c02ca473"><path d="M 94 91 L 95.964844 91 L 95.964844 93 L 94 93 Z M 94 91 " clip-rule="nonzero"/></clipPath></defs><g clip-path="url(#6a36827370)"><path fill="#4f5d99" d="M 88.160156 76.503906 L 88.160156 99 C 88.160156 106.207031 69.753906 112.046875 47.066406 112.046875 C 24.367188 112.046875 5.960938 106.207031 5.960938 99 L 5.960938 76.503906 C 5.960938 69.285156 24.367188 63.445312 47.066406 63.445312 C 69.753906 63.445312 88.160156 69.285156 88.160156 76.503906 Z M 88.160156 76.503906 " fill-opacity="1" fill-rule="nonzero"/></g><g clip-path="url(#13e5b4b9b4)"><path fill="#3d4a75" d="M 88.160156 76.503906 C 88.160156 83.707031 69.753906 89.550781 47.066406 89.550781 C 24.367188 89.550781 5.960938 83.707031 5.960938 76.503906 C 5.960938 69.285156 24.367188 63.445312 47.066406 63.445312 C 69.753906 63.445312 88.160156 69.285156 88.160156 76.503906 Z M 88.160156 76.503906 " fill-opacity="1" fill-rule="nonzero"/></g><g clip-path="url(#d6bc7880d7)"><path fill="#4f5d99" d="M 5.960938 76.503906 C 5.960938 83.707031 24.367188 89.550781 47.066406 89.550781 C 69.753906 89.550781 88.160156 83.707031 88.160156 76.503906 L 88.160156 99.003906 C 88.160156 106.207031 69.753906 112.050781 47.066406 112.050781 C 24.367188 112.050781 5.960938 106.207031 5.960938 99.003906 Z M 5.960938 76.503906 " fill-opacity="1" fill-rule="nonzero"/></g><path fill="#e9e9ff" d="M 32.019531 100.40625 C 32.019531 101.441406 31.109375 102.234375 30.074219 102.125 C 21.097656 101.101562 15.15625 99.011719 12.828125 97.445312 C 12.414062 97.171875 12.191406 96.699219 12.191406 96.210938 C 12.191406 95.167969 13.210938 94.445312 14.183594 94.78125 C 19.027344 96.484375 24.671875 98.054688 30.449219 98.675781 C 31.332031 98.777344 32.019531 99.511719 32.019531 100.40625 Z M 32.019531 100.40625 " fill-opacity="1" fill-rule="nonzero"/><path fill="#7bd681" d="M 83.082031 95.085938 C 83.082031 96.640625 81.820312 97.886719 80.269531 97.886719 C 78.71875 97.886719 77.457031 96.640625 77.457031 95.085938 C 77.457031 93.535156 78.71875 92.277344 80.269531 92.277344 C 81.820312 92.277344 83.082031 93.535156 83.082031 95.085938 Z M 83.082031 95.085938 " fill-opacity="1" fill-rule="nonzero"/><path fill="#ed524e" d="M 63.503906 99.335938 C 63.503906 100.886719 62.238281 102.136719 60.6875 102.136719 C 59.136719 102.136719 57.875 100.886719 57.875 99.335938 C 57.875 97.785156 59.136719 96.523438 60.6875 96.523438 C 62.238281 96.523438 63.503906 97.785156 63.503906 99.335938 Z M 63.503906 99.335938 " fill-opacity="1" fill-rule="nonzero"/><g clip-path="url(#aaee8e798a)"><path fill="#4f5d99" d="M 88.160156 48.601562 L 88.160156 71.101562 C 88.160156 78.304688 69.753906 84.144531 47.066406 84.144531 C 24.367188 84.144531 5.960938 78.304688 5.960938 71.101562 L 5.960938 48.601562 C 5.960938 41.382812 24.367188 35.542969 47.066406 35.542969 C 69.753906 35.542969 88.160156 41.382812 88.160156 48.601562 Z M 88.160156 48.601562 " fill-opacity="1" fill-rule="nonzero"/></g><g clip-path="url(#15115df192)"><path fill="#3d4a75" d="M 88.160156 48.601562 C 88.160156 55.808594 69.753906 61.648438 47.066406 61.648438 C 24.367188 61.648438 5.960938 55.808594 5.960938 48.601562 C 5.960938 41.382812 24.367188 35.542969 47.066406 35.542969 C 69.753906 35.542969 88.160156 41.382812 88.160156 48.601562 Z M 88.160156 48.601562 " fill-opacity="1" fill-rule="nonzero"/></g><g clip-path="url(#2e465e7630)"><path fill="#4f5d99" d="M 5.960938 48.601562 C 5.960938 55.808594 24.367188 61.648438 47.066406 61.648438 C 69.753906 61.648438 88.160156 55.808594 88.160156 48.601562 L 88.160156 71.101562 C 88.160156 78.304688 69.753906 84.148438 47.066406 84.148438 C 24.367188 84.148438 5.960938 78.304688 5.960938 71.101562 Z M 5.960938 48.601562 " fill-opacity="1" fill-rule="nonzero"/></g><path fill="#e9e9ff" d="M 32.019531 72.503906 C 32.019531 73.539062 31.109375 74.335938 30.074219 74.222656 C 21.097656 73.203125 15.15625 71.109375 12.828125 69.542969 C 12.414062 69.269531 12.191406 68.796875 12.191406 68.3125 C 12.191406 67.265625 13.210938 66.542969 14.183594 66.878906 C 19.027344 68.585938 24.671875 70.152344 30.449219 70.773438 C 31.332031 70.875 32.019531 71.609375 32.019531 72.503906 Z M 32.019531 72.503906 " fill-opacity="1" fill-rule="nonzero"/><path fill="#7bd681" d="M 83.082031 67.1875 C 83.082031 68.738281 81.820312 69.984375 80.269531 69.984375 C 78.71875 69.984375 77.457031 68.738281 77.457031 67.1875 C 77.457031 65.636719 78.71875 64.375 80.269531 64.375 C 81.820312 64.375 83.082031 65.636719 83.082031 67.1875 Z M 83.082031 67.1875 " fill-opacity="1" fill-rule="nonzero"/><path fill="#fdc72e" d="M 73.445312 69.992188 C 73.445312 71.542969 72.183594 72.789062 70.628906 72.789062 C 69.078125 72.789062 67.816406 71.542969 67.816406 69.992188 C 67.816406 68.441406 69.078125 67.179688 70.628906 67.179688 C 72.183594 67.179688 73.445312 68.441406 73.445312 69.992188 Z M 73.445312 69.992188 " fill-opacity="1" fill-rule="nonzero"/><path fill="#ed524e" d="M 63.503906 71.433594 C 63.503906 72.988281 62.238281 74.234375 60.6875 74.234375 C 59.136719 74.234375 57.875 72.988281 57.875 71.433594 C 57.875 69.882812 59.136719 68.625 60.6875 68.625 C 62.238281 68.625 63.503906 69.882812 63.503906 71.433594 Z M 63.503906 71.433594 " fill-opacity="1" fill-rule="nonzero"/><g clip-path="url(#c162f57b2c)"><path fill="#4f5d99" d="M 88.160156 20.703125 L 88.160156 43.199219 C 88.160156 50.402344 69.753906 56.242188 47.066406 56.242188 C 24.367188 56.242188 5.960938 50.402344 5.960938 43.199219 L 5.960938 20.703125 C 5.960938 13.484375 24.367188 7.640625 47.066406 7.640625 C 69.753906 7.640625 88.160156 13.484375 88.160156 20.703125 Z M 88.160156 20.703125 " fill-opacity="1" fill-rule="nonzero"/></g><g clip-path="url(#121e4e49a8)"><path fill="#3d4a75" d="M 88.160156 20.703125 C 88.160156 27.90625 69.753906 33.746094 47.066406 33.746094 C 24.367188 33.746094 5.960938 27.90625 5.960938 20.703125 C 5.960938 13.484375 24.367188 7.640625 47.066406 7.640625 C 69.753906 7.640625 88.160156 13.484375 88.160156 20.703125 Z M 88.160156 20.703125 " fill-opacity="1" fill-rule="nonzero"/></g><g clip-path="url(#9703bf159d)"><path fill="#4f5d99" d="M 5.960938 20.703125 C 5.960938 27.90625 24.367188 33.746094 47.066406 33.746094 C 69.753906 33.746094 88.160156 27.90625 88.160156 20.703125 L 88.160156 43.199219 C 88.160156 50.402344 69.753906 56.246094 47.066406 56.246094 C 24.367188 56.246094 5.960938 50.402344 5.960938 43.199219 Z M 5.960938 20.703125 " fill-opacity="1" fill-rule="nonzero"/></g><path fill="#e9e9ff" d="M 32.019531 44.601562 C 32.019531 45.636719 31.109375 46.433594 30.074219 46.320312 C 21.097656 45.300781 15.15625 43.210938 12.828125 41.640625 C 12.414062 41.367188 12.191406 40.894531 12.191406 40.410156 C 12.191406 39.363281 13.210938 38.640625 14.183594 38.976562 C 19.027344 40.683594 24.671875 42.25 30.449219 42.871094 C 31.332031 42.972656 32.019531 43.707031 32.019531 44.601562 Z M 32.019531 44.601562 " fill-opacity="1" fill-rule="nonzero"/><path fill="#7bd681" d="M 83.082031 39.285156 C 83.082031 40.835938 81.820312 42.082031 80.269531 42.082031 C 78.71875 42.082031 77.457031 40.835938 77.457031 39.285156 C 77.457031 37.734375 78.71875 36.472656 80.269531 36.472656 C 81.820312 36.472656 83.082031 37.734375 83.082031 39.285156 Z M 83.082031 39.285156 " fill-opacity="1" fill-rule="nonzero"/><path fill="#fdc72e" d="M 73.445312 42.089844 C 73.445312 43.640625 72.183594 44.886719 70.628906 44.886719 C 69.078125 44.886719 67.816406 43.640625 67.816406 42.089844 C 67.816406 40.539062 69.078125 39.277344 70.628906 39.277344 C 72.183594 39.277344 73.445312 40.539062 73.445312 42.089844 Z M 73.445312 42.089844 " fill-opacity="1" fill-rule="nonzero"/><path fill="#ed524e" d="M 63.503906 43.535156 C 63.503906 45.085938 62.238281 46.332031 60.6875 46.332031 C 59.136719 46.332031 57.875 45.085938 57.875 43.535156 C 57.875 41.984375 59.136719 40.722656 60.6875 40.722656 C 62.238281 40.722656 63.503906 41.984375 63.503906 43.535156 Z M 63.503906 43.535156 " fill-opacity="1" fill-rule="nonzero"/><g clip-path="url(#20d66f75cf)"><g mask="url(#e6d2e786bf)"><g transform="matrix(1, 0, 0, 1, 11, 7)"><g clip-path="url(#d74b95127d)"><g clip-path="url(#2a151b90ef)"><path fill="#ffffff" d="M 55.222656 103.554688 C 49.503906 104.519531 43 105.054688 36.074219 105.054688 C 32.878906 105.054688 29.777344 104.945312 26.804688 104.722656 L 2.402344 6.21875 C 8.679688 3.359375 18.449219 1.355469 29.742188 0.796875 Z M 55.222656 103.554688 " fill-opacity="1" fill-rule="nonzero"/></g><g clip-path="url(#f121566b6b)"><path fill="#ffffff" d="M 69.730469 99.488281 C 67.59375 100.453125 65.066406 101.324219 62.226562 102.066406 L 37.09375 0.648438 C 39.917969 0.667969 42.667969 0.78125 45.324219 0.984375 Z M 69.730469 99.488281 " fill-opacity="1" fill-rule="nonzero"/></g></g></g></g></g><g clip-path="url(#df03ccada9)"><path fill="#70c1f9" d="M 108.832031 87.425781 L 103.4375 86 C 103.160156 85.097656 102.78125 84.210938 102.34375 83.382812 L 105.167969 78.574219 C 105.339844 78.269531 105.296875 77.875 105.035156 77.613281 L 101.355469 73.9375 C 101.09375 73.675781 100.703125 73.617188 100.382812 73.808594 L 95.570312 76.613281 C 95 76.320312 94.421875 76.046875 93.808594 75.828125 C 93.519531 75.710938 93.242188 75.625 92.953125 75.523438 L 91.542969 70.144531 C 91.4375 69.796875 91.132812 69.550781 90.769531 69.550781 L 85.550781 69.550781 C 85.1875 69.550781 84.867188 69.796875 84.777344 70.144531 L 84.605469 70.800781 L 84.371094 71.699219 L 83.367188 75.523438 C 82.453125 75.8125 81.578125 76.175781 80.738281 76.613281 L 75.9375 73.808594 C 75.617188 73.617188 75.226562 73.675781 74.964844 73.9375 L 72.59375 76.308594 L 71.285156 77.613281 C 71.023438 77.875 70.980469 78.269531 71.152344 78.574219 L 73.960938 83.382812 C 73.523438 84.210938 73.160156 85.097656 72.882812 86.015625 L 67.488281 87.425781 C 67.140625 87.511719 66.894531 87.832031 66.894531 88.195312 L 66.894531 93.398438 C 66.894531 93.773438 67.140625 94.082031 67.488281 94.167969 L 72.882812 95.589844 C 73.160156 96.492188 73.523438 97.378906 73.972656 98.207031 L 71.152344 103.015625 C 70.980469 103.324219 71.023438 103.730469 71.285156 103.976562 L 74.964844 107.667969 C 75.226562 107.914062 75.617188 107.972656 75.9375 107.785156 L 80.738281 104.980469 C 81.316406 105.285156 81.898438 105.546875 82.511719 105.777344 C 82.785156 105.878906 83.078125 105.980469 83.367188 106.070312 L 84.777344 111.460938 C 84.867188 111.808594 85.1875 112.054688 85.550781 112.054688 L 90.769531 112.054688 C 91.132812 112.054688 91.4375 111.808594 91.542969 111.460938 L 92.953125 106.070312 C 93.867188 105.777344 94.742188 105.414062 95.570312 104.980469 L 95.582031 104.992188 L 96.253906 105.386719 L 99.261719 107.128906 L 100.382812 107.785156 C 100.46875 107.84375 100.570312 107.871094 100.671875 107.898438 C 100.921875 107.929688 101.167969 107.84375 101.355469 107.667969 L 105.035156 103.976562 C 105.296875 103.730469 105.339844 103.324219 105.167969 103.015625 L 102.34375 98.207031 C 102.78125 97.378906 103.160156 96.492188 103.4375 95.589844 L 108.832031 94.167969 C 109.179688 94.082031 109.425781 93.773438 109.425781 93.398438 L 109.425781 88.195312 C 109.425781 87.832031 109.179688 87.511719 108.832031 87.425781 Z M 88.152344 100.9375 C 82.554688 100.9375 78.003906 96.40625 78.003906 90.796875 C 78.003906 85.199219 82.554688 80.652344 88.152344 80.652344 C 93.75 80.652344 98.304688 85.199219 98.304688 90.796875 C 98.304688 96.40625 93.75 100.9375 88.152344 100.9375 Z M 88.152344 100.9375 " fill-opacity="1" fill-rule="nonzero"/></g><path fill="#4f5d99" d="M 98.304688 90.796875 C 98.304688 91.460938 98.238281 92.121094 98.109375 92.773438 C 97.976562 93.425781 97.785156 94.0625 97.53125 94.675781 C 97.273438 95.292969 96.960938 95.878906 96.59375 96.429688 C 96.222656 96.984375 95.800781 97.496094 95.328125 97.96875 C 94.859375 98.4375 94.347656 98.859375 93.792969 99.230469 C 93.238281 99.601562 92.652344 99.914062 92.035156 100.167969 C 91.421875 100.421875 90.785156 100.613281 90.132812 100.746094 C 89.480469 100.875 88.820312 100.941406 88.152344 100.941406 C 87.484375 100.941406 86.824219 100.875 86.171875 100.746094 C 85.519531 100.613281 84.882812 100.421875 84.269531 100.167969 C 83.652344 99.914062 83.066406 99.601562 82.511719 99.230469 C 81.957031 98.859375 81.445312 98.4375 80.972656 97.96875 C 80.503906 97.496094 80.082031 96.984375 79.710938 96.429688 C 79.339844 95.878906 79.027344 95.292969 78.773438 94.675781 C 78.519531 94.0625 78.328125 93.425781 78.195312 92.773438 C 78.066406 92.121094 78 91.460938 78 90.796875 C 78 90.128906 78.066406 89.46875 78.195312 88.816406 C 78.328125 88.164062 78.519531 87.527344 78.773438 86.914062 C 79.027344 86.296875 79.339844 85.714844 79.710938 85.160156 C 80.082031 84.605469 80.503906 84.09375 80.972656 83.621094 C 81.445312 83.152344 81.957031 82.730469 82.511719 82.359375 C 83.066406 81.992188 83.652344 81.679688 84.269531 81.421875 C 84.882812 81.167969 85.519531 80.976562 86.171875 80.847656 C 86.824219 80.714844 87.484375 80.652344 88.152344 80.652344 C 88.820312 80.652344 89.480469 80.714844 90.132812 80.847656 C 90.785156 80.976562 91.421875 81.167969 92.035156 81.421875 C 92.652344 81.679688 93.238281 81.992188 93.792969 82.359375 C 94.347656 82.730469 94.859375 83.152344 95.328125 83.621094 C 95.800781 84.09375 96.222656 84.605469 96.59375 85.160156 C 96.960938 85.714844 97.273438 86.296875 97.53125 86.914062 C 97.785156 87.527344 97.976562 88.164062 98.109375 88.816406 C 98.238281 89.46875 98.304688 90.128906 98.304688 90.796875 Z M 98.304688 90.796875 " fill-opacity="1" fill-rule="nonzero"/><path fill="#e9e9ff" d="M 96.347656 90.796875 C 96.347656 91.332031 96.292969 91.867188 96.191406 92.394531 C 96.085938 92.921875 95.929688 93.433594 95.722656 93.929688 C 95.515625 94.425781 95.265625 94.898438 94.964844 95.34375 C 94.667969 95.792969 94.328125 96.207031 93.945312 96.585938 C 93.566406 96.964844 93.152344 97.304688 92.707031 97.605469 C 92.257812 97.902344 91.785156 98.15625 91.289062 98.363281 C 90.792969 98.566406 90.277344 98.722656 89.75 98.828125 C 89.222656 98.933594 88.691406 98.984375 88.152344 98.984375 C 87.613281 98.984375 87.082031 98.933594 86.554688 98.828125 C 86.027344 98.722656 85.511719 98.566406 85.015625 98.363281 C 84.519531 98.15625 84.046875 97.902344 83.597656 97.605469 C 83.152344 97.304688 82.738281 96.964844 82.355469 96.585938 C 81.976562 96.207031 81.636719 95.792969 81.339844 95.34375 C 81.039062 94.898438 80.785156 94.425781 80.582031 93.929688 C 80.375 93.433594 80.21875 92.921875 80.113281 92.394531 C 80.007812 91.867188 79.957031 91.332031 79.957031 90.796875 C 79.957031 90.257812 80.007812 89.726562 80.113281 89.199219 C 80.21875 88.671875 80.375 88.15625 80.582031 87.660156 C 80.785156 87.164062 81.039062 86.691406 81.339844 86.246094 C 81.636719 85.796875 81.976562 85.382812 82.355469 85.003906 C 82.738281 84.625 83.152344 84.285156 83.597656 83.984375 C 84.046875 83.6875 84.519531 83.433594 85.015625 83.230469 C 85.511719 83.023438 86.027344 82.867188 86.554688 82.761719 C 87.082031 82.65625 87.613281 82.605469 88.152344 82.605469 C 88.691406 82.605469 89.222656 82.65625 89.75 82.761719 C 90.277344 82.867188 90.792969 83.023438 91.289062 83.230469 C 91.785156 83.433594 92.257812 83.6875 92.707031 83.984375 C 93.152344 84.285156 93.566406 84.625 93.945312 85.003906 C 94.328125 85.382812 94.667969 85.796875 94.964844 86.246094 C 95.265625 86.691406 95.515625 87.164062 95.722656 87.660156 C 95.929688 88.15625 96.085938 88.671875 96.191406 89.199219 C 96.292969 89.726562 96.347656 90.257812 96.347656 90.796875 Z M 96.347656 90.796875 " fill-opacity="1" fill-rule="nonzero"/><g clip-path="url(#e9b4992a57)"><path fill="#3fa07f" d="M 95.566406 87.632812 L 82.113281 87.632812 C 81.957031 87.632812 81.828125 87.757812 81.828125 87.910156 L 81.828125 92.40625 C 81.828125 92.457031 81.84375 92.507812 81.871094 92.550781 L 82.734375 93.917969 L 83.441406 94.367188 L 83.515625 94.414062 L 87.707031 94.414062 L 88.160156 93.917969 C 88.160156 93.554688 88.464844 93.257812 88.839844 93.257812 C 89.027344 93.257812 89.195312 93.332031 89.320312 93.449219 C 89.441406 93.570312 89.519531 93.734375 89.519531 93.917969 L 90.15625 94.414062 L 95.222656 94.414062 L 95.851562 93.917969 L 95.851562 87.910156 C 95.851562 87.757812 95.722656 87.632812 95.566406 87.632812 Z M 82.734375 92.042969 C 82.546875 92.042969 82.394531 91.894531 82.394531 91.714844 C 82.394531 91.53125 82.546875 91.382812 82.734375 91.382812 C 82.921875 91.382812 83.070312 91.53125 83.070312 91.714844 C 83.070312 91.894531 82.921875 92.042969 82.734375 92.042969 Z M 94.945312 92.042969 C 94.757812 92.042969 94.605469 91.894531 94.605469 91.714844 C 94.605469 91.53125 94.757812 91.382812 94.945312 91.382812 C 95.132812 91.382812 95.285156 91.53125 95.285156 91.714844 C 95.285156 91.894531 95.132812 92.042969 94.945312 92.042969 Z M 94.945312 92.042969 " fill-opacity="1" fill-rule="nonzero"/></g><path fill="#ef9d26" d="M 85.671875 92.152344 L 85.671875 92.816406 L 85.03125 92.816406 C 84.753906 92.59375 84.753906 92.375 85.03125 92.152344 Z M 85.671875 92.152344 " fill-opacity="1" fill-rule="nonzero"/><path fill="#ef9d26" d="M 88.425781 92.152344 L 88.425781 92.816406 L 87.785156 92.816406 C 87.5625 92.59375 87.5625 92.375 87.785156 92.152344 Z M 88.425781 92.152344 " fill-opacity="1" fill-rule="nonzero"/><path fill="#ef9d26" d="M 91.175781 92.152344 L 91.175781 92.816406 L 90.535156 92.816406 C 90.386719 92.59375 90.386719 92.375 90.535156 92.152344 Z M 91.175781 92.152344 " fill-opacity="1" fill-rule="nonzero"/><path fill="#ef9d26" d="M 93.929688 92.152344 L 93.929688 92.816406 L 93.289062 92.816406 C 92.808594 92.59375 92.808594 92.375 93.289062 92.152344 Z M 93.929688 92.152344 " fill-opacity="1" fill-rule="nonzero"/><path fill="#f9b132" d="M 93.289062 92.152344 L 93.289062 92.816406 L 92.648438 92.816406 C 92.273438 92.550781 92.335938 92.339844 92.648438 92.152344 Z M 93.289062 92.152344 " fill-opacity="1" fill-rule="nonzero"/><path fill="#f9b132" d="M 90.535156 92.152344 L 90.535156 92.816406 L 89.894531 92.816406 C 89.757812 92.59375 89.757812 92.375 89.894531 92.152344 Z M 90.535156 92.152344 " fill-opacity="1" fill-rule="nonzero"/><path fill="#f9b132" d="M 87.785156 92.152344 L 87.785156 92.816406 L 87.144531 92.816406 C 86.964844 92.59375 86.964844 92.375 87.144531 92.152344 Z M 87.785156 92.152344 " fill-opacity="1" fill-rule="nonzero"/><path fill="#f9b132" d="M 85.03125 92.152344 L 85.03125 92.816406 L 84.390625 92.816406 C 84.121094 92.59375 84.121094 92.375 84.390625 92.152344 Z M 85.03125 92.152344 " fill-opacity="1" fill-rule="nonzero"/><path fill="#ffc05a" d="M 92.003906 92.152344 L 92.648438 92.152344 L 92.648438 92.816406 L 92.003906 92.816406 Z M 92.003906 92.152344 " fill-opacity="1" fill-rule="nonzero"/><path fill="#ffc05a" d="M 89.253906 92.152344 L 89.894531 92.152344 L 89.894531 92.816406 L 89.253906 92.816406 Z M 89.253906 92.152344 " fill-opacity="1" fill-rule="nonzero"/><path fill="#ffc05a" d="M 86.503906 92.152344 L 87.144531 92.152344 L 87.144531 92.816406 L 86.503906 92.816406 Z M 86.503906 92.152344 " fill-opacity="1" fill-rule="nonzero"/><path fill="#ffc05a" d="M 83.75 92.152344 L 84.390625 92.152344 L 84.390625 92.816406 L 83.75 92.816406 Z M 83.75 92.152344 " fill-opacity="1" fill-rule="nonzero"/><g clip-path="url(#2798c7ad82)"><path fill="#ffc05a" d="M 95.851562 93.917969 L 95.851562 94.632812 C 95.851562 94.789062 95.722656 94.910156 95.566406 94.910156 L 94.945312 94.910156 C 94.511719 94.515625 94.476562 94.179688 94.945312 93.917969 Z M 95.851562 93.917969 " fill-opacity="1" fill-rule="nonzero"/></g><path fill="#ef9d26" d="M 94.945312 93.917969 L 94.945312 94.910156 L 94.042969 94.910156 C 93.480469 94.40625 93.5625 94.101562 94.042969 93.917969 Z M 94.945312 93.917969 " fill-opacity="1" fill-rule="nonzero"/><path fill="#ffc05a" d="M 94.042969 93.917969 L 94.042969 94.910156 L 93.136719 94.910156 C 92.855469 94.566406 92.867188 94.238281 93.136719 93.917969 Z M 94.042969 93.917969 " fill-opacity="1" fill-rule="nonzero"/><path fill="#d2d2d1" d="M 92.003906 88.402344 L 93.929688 88.402344 L 93.929688 91.714844 L 92.003906 91.714844 Z M 92.003906 88.402344 " fill-opacity="1" fill-rule="nonzero"/><path fill="#ef9d26" d="M 93.136719 93.917969 L 93.136719 94.910156 L 92.230469 94.910156 C 91.949219 94.527344 91.914062 94.191406 92.230469 93.917969 Z M 93.136719 93.917969 " fill-opacity="1" fill-rule="nonzero"/><path fill="#ffc05a" d="M 92.230469 93.917969 L 92.230469 94.910156 L 91.328125 94.910156 C 90.980469 94.488281 90.980469 94.15625 91.328125 93.917969 Z M 92.230469 93.917969 " fill-opacity="1" fill-rule="nonzero"/><path fill="#ef9d26" d="M 91.328125 93.917969 L 91.328125 94.910156 L 90.421875 94.910156 C 90.136719 94.554688 90.15625 94.226562 90.421875 93.917969 Z M 91.328125 93.917969 " fill-opacity="1" fill-rule="nonzero"/><path fill="#d2d2d1" d="M 89.253906 88.402344 L 91.175781 88.402344 L 91.175781 91.714844 L 89.253906 91.714844 Z M 89.253906 88.402344 " fill-opacity="1" fill-rule="nonzero"/><path fill="#ffc05a" d="M 89.519531 93.917969 L 90.421875 93.917969 L 90.421875 94.910156 L 89.519531 94.910156 Z M 89.519531 93.917969 " fill-opacity="1" fill-rule="nonzero"/><path fill="#d2d2d1" d="M 86.503906 88.402344 L 88.425781 88.402344 L 88.425781 91.714844 L 86.503906 91.714844 Z M 86.503906 88.402344 " fill-opacity="1" fill-rule="nonzero"/><path fill="#ef9d26" d="M 88.160156 93.917969 L 88.160156 94.910156 L 87.257812 94.910156 C 86.976562 94.558594 86.984375 94.230469 87.257812 93.917969 Z M 88.160156 93.917969 " fill-opacity="1" fill-rule="nonzero"/><path fill="#ffc05a" d="M 87.257812 93.917969 L 87.257812 94.910156 L 86.351562 94.910156 C 86.1875 94.523438 86.195312 94.199219 86.351562 93.917969 Z M 87.257812 93.917969 " fill-opacity="1" fill-rule="nonzero"/><path fill="#ef9d26" d="M 86.351562 93.917969 L 86.351562 94.910156 L 85.445312 94.910156 C 85.234375 94.554688 85.234375 94.226562 85.445312 93.917969 Z M 86.351562 93.917969 " fill-opacity="1" fill-rule="nonzero"/><path fill="#d2d2d1" d="M 83.75 88.402344 L 85.671875 88.402344 L 85.671875 91.714844 L 83.75 91.714844 Z M 83.75 88.402344 " fill-opacity="1" fill-rule="nonzero"/><path fill="#ffc05a" d="M 85.445312 93.917969 L 85.445312 94.910156 L 84.542969 94.910156 C 84.230469 94.539062 84.273438 94.214844 84.542969 93.917969 Z M 85.445312 93.917969 " fill-opacity="1" fill-rule="nonzero"/><path fill="#ef9d26" d="M 84.542969 93.917969 L 84.542969 94.910156 L 83.636719 94.910156 C 83.367188 94.523438 83.378906 94.199219 83.636719 93.917969 Z M 84.542969 93.917969 " fill-opacity="1" fill-rule="nonzero"/><path fill="#ffc05a" d="M 83.636719 93.917969 L 83.636719 94.910156 L 83.015625 94.910156 C 82.859375 94.910156 82.734375 94.789062 82.734375 94.632812 L 82.734375 93.917969 Z M 83.636719 93.917969 " fill-opacity="1" fill-rule="nonzero"/><g clip-path="url(#9bed1adee3)"><path fill="#3a322b" d="M 95.566406 87.523438 L 82.113281 87.523438 C 81.894531 87.523438 81.714844 87.695312 81.714844 87.910156 L 81.714844 92.40625 C 81.714844 92.476562 81.734375 92.546875 81.773438 92.609375 L 82.621094 93.949219 L 82.621094 94.632812 C 82.621094 94.847656 82.796875 95.023438 83.015625 95.023438 L 88.160156 95.023438 C 88.222656 95.023438 88.273438 94.972656 88.273438 94.910156 L 88.273438 93.917969 C 88.273438 93.613281 88.527344 93.367188 88.839844 93.367188 C 89.152344 93.367188 89.40625 93.613281 89.40625 93.917969 L 89.40625 94.910156 C 89.40625 94.972656 89.457031 95.023438 89.519531 95.023438 L 95.566406 95.023438 C 95.785156 95.023438 95.964844 94.847656 95.964844 94.632812 L 95.964844 87.910156 C 95.964844 87.695312 95.785156 87.523438 95.566406 87.523438 Z M 83.523438 94.800781 L 83.015625 94.800781 C 82.921875 94.800781 82.847656 94.726562 82.847656 94.632812 L 82.847656 94.027344 L 83.523438 94.027344 Z M 84.429688 94.800781 L 83.75 94.800781 L 83.75 94.027344 L 84.429688 94.027344 Z M 85.332031 94.800781 L 84.65625 94.800781 L 84.65625 94.027344 L 85.332031 94.027344 Z M 86.238281 94.800781 L 85.558594 94.800781 L 85.558594 94.027344 L 86.238281 94.027344 Z M 87.144531 94.800781 L 86.464844 94.800781 L 86.464844 94.027344 L 87.144531 94.027344 Z M 88.046875 94.800781 L 87.371094 94.800781 L 87.371094 94.027344 L 88.046875 94.027344 Z M 90.308594 94.800781 L 89.632812 94.800781 L 89.632812 94.027344 L 90.308594 94.027344 Z M 91.214844 94.800781 L 90.535156 94.800781 L 90.535156 94.027344 L 91.214844 94.027344 Z M 92.117188 94.800781 L 91.441406 94.800781 L 91.441406 94.027344 L 92.117188 94.027344 Z M 93.023438 94.800781 L 92.34375 94.800781 L 92.34375 94.027344 L 93.023438 94.027344 Z M 93.929688 94.800781 L 93.25 94.800781 L 93.25 94.027344 L 93.929688 94.027344 Z M 94.832031 94.800781 L 94.15625 94.800781 L 94.15625 94.027344 L 94.832031 94.027344 Z M 95.738281 94.632812 C 95.738281 94.726562 95.660156 94.800781 95.566406 94.800781 L 95.058594 94.800781 L 95.058594 94.027344 L 95.738281 94.027344 Z M 95.738281 93.808594 L 89.621094 93.808594 C 89.566406 93.433594 89.238281 93.148438 88.839844 93.148438 C 88.441406 93.148438 88.109375 93.433594 88.054688 93.808594 L 82.796875 93.808594 L 81.964844 92.496094 C 81.949219 92.46875 81.941406 92.4375 81.941406 92.40625 L 81.941406 87.910156 C 81.941406 87.816406 82.019531 87.742188 82.113281 87.742188 L 95.566406 87.742188 C 95.660156 87.742188 95.738281 87.816406 95.738281 87.910156 Z M 95.738281 93.808594 " fill-opacity="1" fill-rule="nonzero"/></g><path fill="#3a322b" d="M 88.425781 92.042969 L 86.503906 92.042969 C 86.441406 92.042969 86.390625 92.09375 86.390625 92.152344 L 86.390625 92.816406 C 86.390625 92.878906 86.441406 92.925781 86.503906 92.925781 L 88.425781 92.925781 C 88.488281 92.925781 88.539062 92.878906 88.539062 92.816406 L 88.539062 92.152344 C 88.539062 92.09375 88.488281 92.042969 88.425781 92.042969 Z M 87.03125 92.707031 L 86.617188 92.707031 L 86.617188 92.265625 L 87.03125 92.265625 Z M 87.671875 92.707031 L 87.257812 92.707031 L 87.257812 92.265625 L 87.671875 92.265625 Z M 88.3125 92.707031 L 87.898438 92.707031 L 87.898438 92.265625 L 88.3125 92.265625 Z M 88.3125 92.707031 " fill-opacity="1" fill-rule="nonzero"/><path fill="#3a322b" d="M 88.425781 88.292969 L 86.503906 88.292969 C 86.441406 88.292969 86.390625 88.34375 86.390625 88.402344 L 86.390625 91.714844 C 86.390625 91.773438 86.441406 91.824219 86.503906 91.824219 L 88.425781 91.824219 C 88.488281 91.824219 88.539062 91.773438 88.539062 91.714844 L 88.539062 88.402344 C 88.539062 88.34375 88.488281 88.292969 88.425781 88.292969 Z M 88.3125 91.601562 L 86.617188 91.601562 L 86.617188 88.515625 L 88.3125 88.515625 Z M 88.3125 91.601562 " fill-opacity="1" fill-rule="nonzero"/><path fill="#3a322b" d="M 85.671875 92.042969 L 83.75 92.042969 C 83.6875 92.042969 83.636719 92.09375 83.636719 92.152344 L 83.636719 92.816406 C 83.636719 92.878906 83.6875 92.925781 83.75 92.925781 L 85.671875 92.925781 C 85.734375 92.925781 85.785156 92.878906 85.785156 92.816406 L 85.785156 92.152344 C 85.785156 92.09375 85.734375 92.042969 85.671875 92.042969 Z M 84.277344 92.707031 L 83.863281 92.707031 L 83.863281 92.265625 L 84.277344 92.265625 Z M 84.917969 92.707031 L 84.503906 92.707031 L 84.503906 92.265625 L 84.917969 92.265625 Z M 85.558594 92.707031 L 85.144531 92.707031 L 85.144531 92.265625 L 85.558594 92.265625 Z M 85.558594 92.707031 " fill-opacity="1" fill-rule="nonzero"/><path fill="#3a322b" d="M 85.671875 88.292969 L 83.75 88.292969 C 83.6875 88.292969 83.636719 88.34375 83.636719 88.402344 L 83.636719 91.714844 C 83.636719 91.773438 83.6875 91.824219 83.75 91.824219 L 85.671875 91.824219 C 85.734375 91.824219 85.785156 91.773438 85.785156 91.714844 L 85.785156 88.402344 C 85.785156 88.34375 85.734375 88.292969 85.671875 88.292969 Z M 85.558594 91.601562 L 83.863281 91.601562 L 83.863281 88.515625 L 85.558594 88.515625 Z M 85.558594 91.601562 " fill-opacity="1" fill-rule="nonzero"/><path fill="#3a322b" d="M 82.734375 91.273438 C 82.484375 91.273438 82.28125 91.46875 82.28125 91.714844 C 82.28125 91.957031 82.484375 92.152344 82.734375 92.152344 C 82.980469 92.152344 83.183594 91.957031 83.183594 91.714844 C 83.183594 91.46875 82.980469 91.273438 82.734375 91.273438 Z M 82.734375 91.933594 C 82.609375 91.933594 82.507812 91.835938 82.507812 91.714844 C 82.507812 91.589844 82.609375 91.492188 82.734375 91.492188 C 82.855469 91.492188 82.957031 91.589844 82.957031 91.714844 C 82.957031 91.835938 82.855469 91.933594 82.734375 91.933594 Z M 82.734375 91.933594 " fill-opacity="1" fill-rule="nonzero"/><path fill="#3a322b" d="M 91.175781 92.042969 L 89.253906 92.042969 C 89.191406 92.042969 89.140625 92.09375 89.140625 92.152344 L 89.140625 92.816406 C 89.140625 92.878906 89.191406 92.925781 89.253906 92.925781 L 91.175781 92.925781 C 91.238281 92.925781 91.289062 92.878906 91.289062 92.816406 L 91.289062 92.152344 C 91.289062 92.09375 91.238281 92.042969 91.175781 92.042969 Z M 89.78125 92.707031 L 89.367188 92.707031 L 89.367188 92.265625 L 89.78125 92.265625 Z M 90.421875 92.707031 L 90.007812 92.707031 L 90.007812 92.265625 L 90.421875 92.265625 Z M 91.0625 92.707031 L 90.648438 92.707031 L 90.648438 92.265625 L 91.0625 92.265625 Z M 91.0625 92.707031 " fill-opacity="1" fill-rule="nonzero"/><path fill="#3a322b" d="M 91.175781 88.292969 L 89.253906 88.292969 C 89.191406 88.292969 89.140625 88.34375 89.140625 88.402344 L 89.140625 91.714844 C 89.140625 91.773438 89.191406 91.824219 89.253906 91.824219 L 91.175781 91.824219 C 91.238281 91.824219 91.289062 91.773438 91.289062 91.714844 L 91.289062 88.402344 C 91.289062 88.34375 91.238281 88.292969 91.175781 88.292969 Z M 91.0625 91.601562 L 89.367188 91.601562 L 89.367188 88.515625 L 91.0625 88.515625 Z M 91.0625 91.601562 " fill-opacity="1" fill-rule="nonzero"/><path fill="#3a322b" d="M 93.929688 92.042969 L 92.003906 92.042969 C 91.945312 92.042969 91.894531 92.09375 91.894531 92.152344 L 91.894531 92.816406 C 91.894531 92.878906 91.945312 92.925781 92.003906 92.925781 L 93.929688 92.925781 C 93.992188 92.925781 94.042969 92.878906 94.042969 92.816406 L 94.042969 92.152344 C 94.042969 92.09375 93.992188 92.042969 93.929688 92.042969 Z M 92.535156 92.707031 L 92.117188 92.707031 L 92.117188 92.265625 L 92.535156 92.265625 Z M 93.175781 92.707031 L 92.761719 92.707031 L 92.761719 92.265625 L 93.175781 92.265625 Z M 93.816406 92.707031 L 93.402344 92.707031 L 93.402344 92.265625 L 93.816406 92.265625 Z M 93.816406 92.707031 " fill-opacity="1" fill-rule="nonzero"/><path fill="#3a322b" d="M 93.929688 88.292969 L 92.003906 88.292969 C 91.945312 88.292969 91.894531 88.34375 91.894531 88.402344 L 91.894531 91.714844 C 91.894531 91.773438 91.945312 91.824219 92.003906 91.824219 L 93.929688 91.824219 C 93.992188 91.824219 94.042969 91.773438 94.042969 91.714844 L 94.042969 88.402344 C 94.042969 88.34375 93.992188 88.292969 93.929688 88.292969 Z M 93.816406 91.601562 L 92.117188 91.601562 L 92.117188 88.515625 L 93.816406 88.515625 Z M 93.816406 91.601562 " fill-opacity="1" fill-rule="nonzero"/><g clip-path="url(#26c02ca473)"><path fill="#3a322b" d="M 94.945312 91.273438 C 94.695312 91.273438 94.492188 91.46875 94.492188 91.714844 C 94.492188 91.957031 94.695312 92.152344 94.945312 92.152344 C 95.195312 92.152344 95.398438 91.957031 95.398438 91.714844 C 95.398438 91.46875 95.195312 91.273438 94.945312 91.273438 Z M 94.945312 91.933594 C 94.820312 91.933594 94.71875 91.835938 94.71875 91.714844 C 94.71875 91.589844 94.820312 91.492188 94.945312 91.492188 C 95.070312 91.492188 95.171875 91.589844 95.171875 91.714844 C 95.171875 91.835938 95.070312 91.933594 94.945312 91.933594 Z M 94.945312 91.933594 " fill-opacity="1" fill-rule="nonzero"/></g></svg>