<svg xmlns="http://www.w3.org/2000/svg" xmlns:xlink="http://www.w3.org/1999/xlink" width="150" zoomAndPan="magnify" viewBox="0 0 112.5 112.499997" height="150" preserveAspectRatio="xMidYMid meet" version="1.0"><defs><clipPath id="c8530174f2"><path d="M 54 50 L 110 50 L 110 112.003906 L 54 112.003906 Z M 54 50 " clip-rule="nonzero"/></clipPath><clipPath id="407f0485cb"><path d="M 52.417969 49.125 L 112.003906 49.125 L 112.003906 112.003906 L 52.417969 112.003906 Z M 52.417969 49.125 " clip-rule="nonzero"/></clipPath><clipPath id="556fc5dbfa"><path d="M 22 38 L 49.210938 38 L 49.210938 49.226562 L 22 49.226562 Z M 22 38 " clip-rule="nonzero"/></clipPath><clipPath id="7f93a921a3"><path d="M 56.25 16 L 101.25 16 L 101.25 59.898438 L 56.25 59.898438 Z M 56.25 16 " clip-rule="nonzero"/></clipPath><clipPath id="1f4ccfd88b"><path d="M 1.230469 92 L 46 92 L 46 112 L 1.230469 112 Z M 1.230469 92 " clip-rule="nonzero"/></clipPath><clipPath id="ea94e81bc0"><path d="M 1.230469 89 L 46 89 L 46 108 L 1.230469 108 Z M 1.230469 89 " clip-rule="nonzero"/></clipPath><clipPath id="3ea53e660b"><path d="M 1.230469 85 L 46 85 L 46 105 L 1.230469 105 Z M 1.230469 85 " clip-rule="nonzero"/></clipPath><clipPath id="7d4e22a7f0"><path d="M 1.230469 82 L 46 82 L 46 101 L 1.230469 101 Z M 1.230469 82 " clip-rule="nonzero"/></clipPath><clipPath id="d9043bb1b3"><path d="M 1.230469 78 L 46 78 L 46 98 L 1.230469 98 Z M 1.230469 78 " clip-rule="nonzero"/></clipPath><clipPath id="a02e4cf102"><path d="M 1.230469 74.699219 L 46 74.699219 L 46 94 L 1.230469 94 Z M 1.230469 74.699219 " clip-rule="nonzero"/></clipPath></defs><g clip-path="url(#c8530174f2)"><path fill="#209237" d="M 109.839844 97.382812 L 109.839844 66.113281 L 82.417969 50.476562 L 54.996094 66.113281 L 54.996094 97.382812 L 82.417969 113.019531 Z M 109.839844 97.382812 " fill-opacity="1" fill-rule="nonzero"/></g><path fill="#ffffff" d="M 74.136719 94.226562 C 74.136719 96.183594 72.71875 97.730469 70.96875 97.730469 L 70.777344 97.730469 C 68.984375 97.730469 67.570312 96.101562 67.570312 94.226562 L 67.570312 69.269531 C 67.570312 67.351562 69.136719 65.761719 71.300781 65.761719 C 72.90625 65.761719 74.734375 66.457031 75.851562 67.964844 L 87.175781 82.769531 C 88.320312 84.261719 90.707031 83.453125 90.707031 81.578125 L 90.707031 69.269531 C 90.707031 67.308594 92.199219 65.761719 93.914062 65.761719 L 94.101562 65.761719 C 95.894531 65.761719 97.3125 67.394531 97.3125 69.269531 L 97.3125 94.226562 L 97.351562 94.226562 C 97.351562 96.144531 95.742188 97.734375 93.546875 97.734375 C 91.976562 97.734375 90.1875 97.042969 89.066406 95.53125 L 77.226562 80.128906 C 76.226562 78.828125 74.144531 79.535156 74.144531 81.175781 L 74.144531 94.226562 Z M 74.136719 94.226562 " fill-opacity="1" fill-rule="nonzero"/><g clip-path="url(#407f0485cb)"><path fill="#000000" d="M 82.417969 114.375 C 82.085938 114.375 81.75 114.292969 81.453125 114.132812 L 53.523438 99.179688 C 52.859375 98.820312 52.445312 98.132812 52.445312 97.382812 L 52.445312 66.117188 C 52.445312 65.363281 52.859375 64.675781 53.523438 64.320312 L 81.453125 49.367188 C 82.058594 49.042969 82.777344 49.042969 83.382812 49.367188 L 111.3125 64.320312 C 111.976562 64.675781 112.390625 65.363281 112.390625 66.117188 L 112.390625 97.382812 C 112.390625 98.132812 111.976562 98.820312 111.308594 99.179688 L 83.382812 114.132812 C 83.082031 114.292969 82.75 114.375 82.417969 114.375 Z M 56.53125 96.164062 L 82.417969 110.019531 L 108.300781 96.164062 L 108.300781 67.332031 L 82.417969 53.480469 L 56.53125 67.332031 Z M 56.53125 96.164062 " fill-opacity="1" fill-rule="nonzero"/></g><path fill="#000000" d="M 93.605469 98.742188 C 91.191406 98.742188 88.90625 97.683594 87.492188 95.914062 L 76.941406 84.011719 L 76.941406 93.417969 C 76.941406 96.550781 73.898438 98.738281 71.171875 98.738281 C 68 98.738281 65.386719 96.253906 65.386719 93.417969 L 65.386719 70.078125 C 65.386719 67.089844 67.9375 64.757812 71.191406 64.757812 C 73.648438 64.757812 75.960938 65.8125 77.375 67.582031 L 87.855469 79.460938 L 87.855469 70.078125 C 87.855469 66.941406 90.851562 64.757812 93.542969 64.757812 C 96.773438 64.757812 99.445312 67.242188 99.445312 70.078125 L 99.445312 93.421875 C 99.445312 96.40625 96.882812 98.742188 93.605469 98.742188 Z M 74.894531 76.59375 C 75.46875 76.59375 76.03125 76.835938 76.425781 77.28125 L 90.625 93.289062 C 92.363281 95.453125 95.359375 94.777344 95.359375 93.421875 L 95.359375 70.078125 C 95.359375 69.566406 94.515625 68.835938 93.734375 68.835938 C 92.8125 68.835938 91.941406 69.507812 91.941406 70.078125 L 91.941406 84.863281 C 91.941406 85.710938 91.417969 86.472656 90.621094 86.769531 C 89.832031 87.066406 88.929688 86.84375 88.363281 86.207031 L 74.246094 70.203125 C 73.554688 69.34375 72.382812 68.835938 71.191406 68.835938 C 70.210938 68.835938 69.472656 69.367188 69.472656 70.078125 L 69.472656 93.417969 C 69.472656 93.949219 70.21875 94.660156 70.980469 94.660156 C 71.941406 94.660156 72.851562 93.984375 72.851562 93.417969 L 72.851562 78.632812 C 72.851562 77.785156 73.378906 77.027344 74.171875 76.726562 C 74.410156 76.636719 74.652344 76.59375 74.894531 76.59375 Z M 74.894531 76.59375 " fill-opacity="1" fill-rule="nonzero"/><path stroke-linecap="round" transform="matrix(0.904255, 0, 0, 0.906782, -3.687803, -4.052999)" fill-opacity="1" fill="#5271ff" fill-rule="evenodd" stroke-linejoin="round" d="M 18.398591 49.417412 L 20.925706 54.612639 L 23.871846 55.034805 L 23.871846 39.031266 L 22.187103 31.03165 L 17.975246 31.1695 Z M 18.398591 49.417412 " stroke="#333333" stroke-width="1.875" stroke-opacity="1" stroke-miterlimit="4"/><path stroke-linecap="round" transform="matrix(0.904255, 0, 0, 0.906782, -3.687803, -4.052999)" fill-opacity="1" fill="#5271ff" fill-rule="evenodd" stroke-linejoin="round" d="M 3.063112 43.313236 C 7.866789 43.046151 9.970557 40.844857 9.970557 40.844857 L 13.063572 55.749903 L 17.966606 56.434846 L 19.655669 32.280917 L 22.593169 32.560925 L 27.936828 37.781999 L 37.345468 34.813913 L 38.624145 30.467326 L 39.65659 20.938435 L 41.470928 18.685447 L 40.498961 18.125431 L 37.531222 20.499038 L 33.794549 30.747334 L 31.029843 30.876569 L 32.563391 17.281099 L 26.247765 8.997167 L 18.968812 10.125815 C 18.968812 10.125815 5.728461 5.008128 3.063112 4.594578 " stroke="#333333" stroke-width="1.875" stroke-opacity="1" stroke-miterlimit="4"/><path stroke-linecap="round" transform="matrix(0.904255, 0, 0, 0.906782, -3.687803, -4.052999)" fill-opacity="1" fill="#5271ff" fill-rule="evenodd" stroke-linejoin="round" d="M 18.679382 10.255049 L 10.113112 11.65509 L 8.851715 24.289917 L 17.55622 33.276023 L 20.221569 32.29384 Z M 18.679382 10.255049 " stroke="#333333" stroke-width="1.875" stroke-opacity="1" stroke-miterlimit="4"/><g clip-path="url(#556fc5dbfa)"><path fill="#5271ff" d="M 43.839844 40.394531 L 43.839844 43.324219 L 45.128906 43.324219 C 45.449219 43.324219 45.734375 43.257812 45.972656 43.121094 C 46.214844 42.984375 46.398438 42.804688 46.523438 42.585938 C 46.648438 42.363281 46.710938 42.121094 46.710938 41.867188 C 46.710938 41.402344 46.566406 41.042969 46.277344 40.785156 C 45.988281 40.523438 45.605469 40.394531 45.128906 40.394531 Z M 41.441406 47.71875 L 41.441406 39.457031 C 41.441406 39.085938 41.558594 38.792969 41.792969 38.574219 C 42.035156 38.351562 42.316406 38.242188 42.640625 38.242188 L 45.582031 38.242188 C 46.210938 38.242188 46.800781 38.382812 47.355469 38.660156 C 47.914062 38.9375 48.359375 39.351562 48.691406 39.902344 C 49.03125 40.449219 49.199219 41.101562 49.199219 41.867188 C 49.199219 42.566406 49.0625 43.191406 48.785156 43.746094 C 48.511719 44.289062 48.109375 44.71875 47.578125 45.027344 C 47.050781 45.335938 46.410156 45.492188 45.664062 45.492188 L 43.839844 45.492188 L 43.839844 47.71875 C 43.839844 48.140625 43.730469 48.460938 43.507812 48.683594 C 43.292969 48.898438 43.003906 49.007812 42.640625 49.007812 C 42.289062 49.007812 42 48.898438 41.773438 48.675781 C 41.546875 48.453125 41.441406 48.128906 41.441406 47.71875 Z M 33.414062 44.570312 L 33.414062 47.71875 C 33.414062 48.140625 33.300781 48.460938 33.082031 48.683594 C 32.863281 48.898438 32.574219 49.007812 32.214844 49.007812 C 31.859375 49.007812 31.570312 48.898438 31.34375 48.675781 C 31.117188 48.453125 31.011719 48.128906 31.011719 47.71875 L 31.011719 39.445312 C 31.011719 39.027344 31.125 38.710938 31.34375 38.488281 C 31.566406 38.265625 31.855469 38.152344 32.214844 38.152344 C 32.574219 38.152344 32.863281 38.261719 33.082031 38.480469 C 33.300781 38.699219 33.414062 39.019531 33.414062 39.445312 L 33.414062 42.332031 L 37.882812 42.332031 L 37.882812 39.445312 C 37.882812 39.027344 37.992188 38.710938 38.214844 38.488281 C 38.4375 38.265625 38.726562 38.152344 39.082031 38.152344 C 39.445312 38.152344 39.734375 38.261719 39.949219 38.480469 C 40.171875 38.699219 40.28125 39.019531 40.28125 39.445312 L 40.28125 47.71875 C 40.28125 48.136719 40.171875 48.460938 39.949219 48.683594 C 39.734375 48.898438 39.445312 49.007812 39.082031 49.007812 C 38.730469 49.007812 38.441406 48.898438 38.214844 48.675781 C 37.988281 48.453125 37.882812 48.128906 37.882812 47.71875 L 37.882812 44.570312 Z M 24.910156 40.394531 L 24.910156 43.324219 L 26.195312 43.324219 C 26.519531 43.324219 26.800781 43.257812 27.042969 43.121094 C 27.285156 42.984375 27.46875 42.804688 27.59375 42.585938 C 27.71875 42.363281 27.78125 42.121094 27.78125 41.867188 C 27.78125 41.402344 27.636719 41.042969 27.347656 40.785156 C 27.058594 40.523438 26.675781 40.394531 26.195312 40.394531 Z M 22.507812 47.71875 L 22.507812 39.457031 C 22.507812 39.085938 22.628906 38.792969 22.863281 38.574219 C 23.105469 38.351562 23.386719 38.242188 23.710938 38.242188 L 26.652344 38.242188 C 27.277344 38.242188 27.871094 38.382812 28.425781 38.660156 C 28.984375 38.9375 29.429688 39.351562 29.761719 39.902344 C 30.097656 40.449219 30.269531 41.101562 30.269531 41.867188 C 30.269531 42.566406 30.128906 43.191406 29.855469 43.746094 C 29.582031 44.289062 29.179688 44.71875 28.648438 45.027344 C 28.117188 45.335938 27.480469 45.492188 26.730469 45.492188 L 24.910156 45.492188 L 24.910156 47.71875 C 24.910156 48.140625 24.800781 48.460938 24.578125 48.683594 C 24.359375 48.898438 24.070312 49.007812 23.710938 49.007812 C 23.359375 49.007812 23.066406 48.898438 22.839844 48.675781 C 22.613281 48.453125 22.507812 48.128906 22.507812 47.71875 Z M 22.507812 47.71875 " fill-opacity="1" fill-rule="nonzero"/></g><g clip-path="url(#7f93a921a3)"><path fill="#00678c" d="M 97.757812 50.015625 C 95.347656 49.949219 93.480469 50.195312 91.910156 50.855469 C 91.460938 51.039062 90.738281 51.039062 90.675781 51.605469 C 90.917969 51.84375 90.945312 52.234375 91.160156 52.5625 C 91.519531 53.164062 92.152344 53.972656 92.726562 54.390625 L 94.652344 55.765625 C 95.828125 56.484375 97.15625 56.90625 98.300781 57.625 C 98.960938 58.042969 99.625 58.582031 100.289062 59.03125 C 100.625 59.273438 100.832031 59.660156 101.253906 59.8125 L 101.253906 59.71875 C 101.042969 59.453125 100.980469 59.0625 100.773438 58.761719 L 99.867188 57.894531 C 98.992188 56.726562 97.90625 55.707031 96.734375 54.871094 C 95.769531 54.210938 93.660156 53.3125 93.269531 52.203125 L 93.207031 52.136719 C 93.871094 52.070312 94.652344 51.835938 95.289062 51.65625 C 96.3125 51.390625 97.246094 51.449219 98.300781 51.179688 L 99.746094 50.757812 L 99.746094 50.492188 C 99.203125 49.953125 98.8125 49.234375 98.242188 48.722656 C 96.703125 47.40625 95.015625 46.117188 93.269531 45.039062 C 92.332031 44.441406 91.128906 44.050781 90.132812 43.542969 C 89.769531 43.363281 89.167969 43.273438 88.957031 42.976562 C 88.414062 42.316406 88.113281 41.449219 87.722656 40.667969 L 85.253906 35.457031 C 84.710938 34.289062 84.378906 33.121094 83.714844 32.042969 C 80.613281 26.953125 77.234375 23.867188 72.054688 20.84375 C 70.9375 20.214844 69.613281 19.945312 68.203125 19.617188 L 65.945312 19.496094 C 65.460938 19.285156 64.980469 18.714844 64.558594 18.445312 C 62.839844 17.367188 58.410156 15.03125 57.144531 18.109375 C 56.328125 20.058594 58.347656 21.972656 59.035156 22.960938 C 59.546875 23.652344 60.210938 24.429688 60.570312 25.207031 C 60.773438 25.71875 60.84375 26.257812 61.054688 26.796875 C 61.535156 28.113281 61.988281 29.582031 62.621094 30.808594 C 62.957031 31.4375 63.3125 32.097656 63.734375 32.667969 C 63.976562 33.003906 64.398438 33.144531 64.488281 33.683594 C 64.066406 34.285156 64.035156 35.179688 63.796875 35.929688 C 62.710938 39.316406 63.132812 43.507812 64.667969 46 C 65.152344 46.746094 66.289062 48.394531 67.832031 47.765625 C 69.191406 47.226562 68.886719 45.519531 69.277344 44.023438 C 69.371094 43.664062 69.308594 43.425781 69.488281 43.183594 L 69.488281 43.25 L 70.726562 45.738281 C 71.660156 47.203125 73.289062 48.730469 74.644531 49.75 C 75.367188 50.289062 75.9375 51.21875 76.84375 51.546875 L 76.84375 51.457031 L 76.78125 51.457031 C 76.601562 51.1875 76.332031 51.066406 76.089844 50.859375 C 75.546875 50.320312 74.945312 49.660156 74.523438 49.0625 C 73.257812 47.382812 72.144531 45.527344 71.148438 43.609375 C 70.664062 42.683594 70.242188 41.664062 69.851562 40.734375 C 69.671875 40.375 69.671875 39.835938 69.371094 39.65625 C 68.917969 40.316406 68.253906 40.886719 67.921875 41.695312 C 67.347656 42.980469 67.289062 44.570312 67.078125 46.214844 C 66.957031 46.246094 67.011719 46.214844 66.957031 46.285156 C 65.996094 46.042969 65.664062 45.054688 65.300781 44.21875 C 64.398438 42.089844 64.246094 38.675781 65.03125 36.222656 C 65.242188 35.59375 66.144531 33.617188 65.785156 33.015625 C 65.601562 32.449219 65 32.117188 64.667969 31.667969 C 64.277344 31.101562 63.855469 30.382812 63.585938 29.753906 C 62.863281 28.074219 62.5 26.21875 61.714844 24.542969 C 61.351562 23.761719 60.722656 22.953125 60.207031 22.234375 C 59.636719 21.425781 59.003906 20.859375 58.550781 19.898438 C 58.402344 19.566406 58.191406 19.03125 58.429688 18.671875 C 58.492188 18.433594 58.613281 18.335938 58.851562 18.28125 C 59.242188 17.945312 60.359375 18.371094 60.75 18.550781 C 61.867188 19 62.800781 19.417969 63.734375 20.046875 C 64.15625 20.347656 64.609375 20.917969 65.152344 21.066406 L 65.785156 21.066406 C 66.75 21.277344 67.832031 21.132812 68.734375 21.402344 C 70.332031 21.914062 71.78125 22.660156 73.078125 23.46875 C 77.023438 25.957031 80.277344 29.488281 82.476562 33.710938 C 82.839844 34.402344 82.988281 35.03125 83.320312 35.75 C 83.957031 37.214844 84.738281 38.714844 85.371094 40.152344 C 86.003906 41.558594 86.605469 42.996094 87.511719 44.164062 C 87.960938 44.792969 89.769531 45.125 90.582031 45.453125 C 91.1875 45.722656 92.121094 45.964844 92.664062 46.292969 C 93.6875 46.921875 94.710938 47.640625 95.675781 48.328125 C 96.15625 48.6875 97.664062 49.4375 97.753906 50.035156 Z M 67.027344 23.992188 C 66.609375 23.988281 66.199219 24.039062 65.792969 24.144531 L 65.792969 24.210938 L 65.851562 24.210938 C 66.09375 24.6875 66.515625 25.019531 66.816406 25.4375 L 67.511719 26.875 L 67.570312 26.808594 C 67.992188 26.507812 68.203125 26.03125 68.203125 25.3125 C 68.023438 25.101562 67.992188 24.894531 67.84375 24.683594 C 67.660156 24.382812 67.269531 24.234375 67.027344 23.996094 Z M 67.027344 23.992188 " fill-opacity="1" fill-rule="evenodd"/></g><g clip-path="url(#1f4ccfd88b)"><path fill="#912626" d="M 43.734375 103.433594 C 41.40625 104.636719 29.351562 109.554688 26.785156 110.882812 C 24.21875 112.210938 22.792969 112.195312 20.765625 111.234375 C 18.738281 110.273438 5.910156 105.132812 3.601562 104.035156 C 2.441406 103.488281 1.835938 103.027344 1.835938 102.589844 L 1.835938 98.214844 C 1.835938 98.214844 18.539062 94.609375 21.234375 93.648438 C 23.929688 92.6875 24.867188 92.652344 27.160156 93.488281 C 29.457031 94.324219 43.175781 96.777344 45.445312 97.601562 L 45.441406 101.914062 C 45.445312 102.347656 44.921875 102.820312 43.734375 103.433594 Z M 43.734375 103.433594 " fill-opacity="1" fill-rule="nonzero"/></g><g clip-path="url(#ea94e81bc0)"><path fill="#c6302b" d="M 43.734375 99.085938 C 41.40625 100.289062 29.351562 105.207031 26.785156 106.535156 C 24.21875 107.863281 22.792969 107.851562 20.765625 106.890625 C 18.738281 105.925781 5.910156 100.785156 3.597656 99.6875 C 1.289062 98.59375 1.238281 97.839844 3.507812 96.953125 C 5.777344 96.074219 18.539062 91.105469 21.234375 90.144531 C 23.929688 89.1875 24.867188 89.148438 27.160156 89.984375 C 29.453125 90.820312 41.4375 95.550781 43.703125 96.375 C 45.972656 97.203125 46.0625 97.882812 43.734375 99.085938 Z M 43.734375 99.085938 " fill-opacity="1" fill-rule="nonzero"/></g><g clip-path="url(#3ea53e660b)"><path fill="#912626" d="M 43.734375 96.355469 C 41.40625 97.5625 29.351562 102.480469 26.785156 103.804688 C 24.21875 105.132812 22.792969 105.121094 20.765625 104.160156 C 18.738281 103.199219 5.910156 98.054688 3.601562 96.960938 C 2.441406 96.414062 1.835938 95.949219 1.835938 95.511719 L 1.835938 91.140625 C 1.835938 91.140625 18.539062 87.53125 21.234375 86.570312 C 23.929688 85.613281 24.867188 85.578125 27.160156 86.410156 C 29.457031 87.246094 43.175781 89.703125 45.445312 90.527344 L 45.441406 94.839844 C 45.445312 95.269531 44.921875 95.742188 43.734375 96.355469 Z M 43.734375 96.355469 " fill-opacity="1" fill-rule="nonzero"/></g><g clip-path="url(#7d4e22a7f0)"><path fill="#c6302b" d="M 43.734375 92.007812 C 41.40625 93.214844 29.351562 98.128906 26.785156 99.460938 C 24.21875 100.785156 22.792969 100.773438 20.765625 99.8125 C 18.738281 98.851562 5.910156 93.710938 3.597656 92.613281 C 1.289062 91.515625 1.238281 90.765625 3.507812 89.878906 C 5.777344 88.996094 18.539062 84.03125 21.234375 83.070312 C 23.929688 82.113281 24.867188 82.074219 27.160156 82.910156 C 29.453125 83.746094 41.4375 88.476562 43.703125 89.300781 C 45.972656 90.125 46.0625 90.804688 43.734375 92.007812 Z M 43.734375 92.007812 " fill-opacity="1" fill-rule="nonzero"/></g><g clip-path="url(#d9043bb1b3)"><path fill="#912626" d="M 43.734375 89.015625 C 41.40625 90.222656 29.351562 95.140625 26.785156 96.464844 C 24.21875 97.792969 22.792969 97.78125 20.765625 96.820312 C 18.738281 95.859375 5.910156 90.714844 3.601562 89.621094 C 2.441406 89.074219 1.835938 88.609375 1.835938 88.175781 L 1.835938 83.800781 C 1.835938 83.800781 18.539062 80.195312 21.234375 79.234375 C 23.929688 78.273438 24.867188 78.238281 27.160156 79.074219 C 29.457031 79.90625 43.175781 82.363281 45.445312 83.1875 L 45.441406 87.5 C 45.445312 87.929688 44.921875 88.40625 43.734375 89.015625 Z M 43.734375 89.015625 " fill-opacity="1" fill-rule="nonzero"/></g><g clip-path="url(#a02e4cf102)"><path fill="#c6302b" d="M 43.734375 84.671875 C 41.40625 85.875 29.351562 90.792969 26.785156 92.121094 C 24.21875 93.445312 22.792969 93.433594 20.765625 92.472656 C 18.738281 91.511719 5.910156 86.367188 3.597656 85.273438 C 1.289062 84.175781 1.238281 83.421875 3.507812 82.539062 C 5.777344 81.660156 18.539062 76.691406 21.234375 75.730469 C 23.929688 74.773438 24.867188 74.734375 27.160156 75.570312 C 29.453125 76.40625 41.4375 81.136719 43.703125 81.960938 C 45.972656 82.785156 46.0625 83.464844 43.734375 84.671875 Z M 43.734375 84.671875 " fill-opacity="1" fill-rule="nonzero"/></g><path fill="#ffffff" d="M 28.96875 80.414062 L 25.21875 80.800781 L 24.382812 82.804688 L 23.027344 80.570312 L 18.695312 80.183594 L 21.925781 79.027344 L 20.957031 77.253906 L 23.984375 78.425781 L 26.835938 77.5 L 26.0625 79.335938 Z M 24.15625 90.136719 L 17.160156 87.257812 L 27.183594 85.730469 Z M 14.453125 81.53125 C 17.414062 81.53125 19.8125 82.453125 19.8125 83.589844 C 19.8125 84.726562 17.414062 85.652344 14.453125 85.652344 C 11.496094 85.652344 9.097656 84.726562 9.097656 83.589844 C 9.097656 82.453125 11.496094 81.53125 14.453125 81.53125 Z M 14.453125 81.53125 " fill-opacity="1" fill-rule="nonzero"/><path fill="#621b1c" d="M 33.398438 80.964844 L 39.332031 83.289062 L 33.402344 85.613281 Z M 33.398438 80.964844 " fill-opacity="1" fill-rule="nonzero"/><path fill="#9a2928" d="M 26.835938 83.539062 L 33.398438 80.964844 L 33.402344 85.613281 L 32.761719 85.863281 Z M 26.835938 83.539062 " fill-opacity="1" fill-rule="nonzero"/></svg>