<svg xmlns="http://www.w3.org/2000/svg" xmlns:xlink="http://www.w3.org/1999/xlink" width="150" zoomAndPan="magnify" viewBox="0 0 112.5 112.499997" height="150" preserveAspectRatio="xMidYMid meet" version="1.0"><defs><clipPath id="d307efaf2b"><path d="M 14.800781 51 L 59.800781 51 L 59.800781 74.933594 L 14.800781 74.933594 Z M 14.800781 51 " clip-rule="nonzero"/></clipPath><clipPath id="b5202aafbe"><path d="M 7.339844 68 L 36 68 L 36 107 L 7.339844 107 Z M 7.339844 68 " clip-rule="nonzero"/></clipPath><clipPath id="24e4046b8a"><path d="M 84 63 L 108.589844 63 L 108.589844 107 L 84 107 Z M 84 63 " clip-rule="nonzero"/></clipPath><clipPath id="b848209dd7"><path d="M 33 1.410156 L 83 1.410156 L 83 25 L 33 25 Z M 33 1.410156 " clip-rule="nonzero"/></clipPath><clipPath id="48600f2520"><path d="M 33 1.410156 L 58 1.410156 L 58 25 L 33 25 Z M 33 1.410156 " clip-rule="nonzero"/></clipPath></defs><g clip-path="url(#d307efaf2b)"><path fill="#ffffff" d="M 37.300781 51.027344 C 24.875 51.027344 14.800781 56.339844 14.800781 62.90625 C 14.800781 69.472656 24.875 74.789062 37.300781 74.789062 C 49.722656 74.789062 59.800781 69.472656 59.800781 62.90625 C 59.800781 56.339844 49.722656 51.027344 37.300781 51.027344 Z M 37.300781 52.214844 C 49.351562 52.214844 58.617188 57.308594 58.617188 62.90625 C 58.617188 68.503906 49.34375 73.601562 37.300781 73.601562 C 25.246094 73.601562 15.980469 68.503906 15.980469 62.90625 C 15.980469 57.308594 25.253906 52.214844 37.300781 52.214844 Z M 34.566406 54.566406 L 32.292969 66.34375 L 34.832031 66.34375 L 36.140625 59.59375 C 38.207031 59.59375 39.0625 59.511719 39.4375 59.917969 C 39.824219 60.335938 39.625 60.796875 38.554688 66.34375 L 41.128906 66.34375 C 42.242188 60.609375 42.734375 59.390625 41.703125 58.441406 C 40.726562 57.535156 38.695312 57.695312 36.503906 57.695312 L 37.105469 54.566406 Z M 23.921875 57.703125 L 21.648438 69.484375 L 24.199219 69.484375 L 24.804688 66.355469 C 27.664062 66.355469 29.441406 66.5625 31.082031 65.019531 C 32.898438 63.34375 33.371094 60.363281 32.074219 58.871094 C 31.398438 58.085938 30.3125 57.703125 28.839844 57.703125 Z M 43.878906 57.703125 L 41.601562 69.484375 L 44.160156 69.484375 L 44.765625 66.355469 C 47.769531 66.355469 49.433594 66.53125 51.039062 65.019531 C 52.855469 63.34375 53.328125 60.363281 52.035156 58.871094 C 51.359375 58.085938 50.273438 57.703125 48.800781 57.703125 Z M 27.929688 59.558594 C 29.523438 59.605469 30.4375 59.941406 30.050781 61.953125 C 29.5 64.785156 27.5625 64.492188 25.175781 64.492188 L 26.128906 59.5625 C 26.789062 59.5625 27.394531 59.542969 27.929688 59.558594 Z M 47.886719 59.558594 C 49.484375 59.605469 50.386719 59.941406 50.003906 61.953125 C 49.445312 64.824219 47.449219 64.492188 45.128906 64.492188 L 46.082031 59.5625 C 46.746094 59.5625 47.355469 59.542969 47.886719 59.558594 Z M 47.886719 59.558594 " fill-opacity="1" fill-rule="nonzero"/></g><path fill="#cfd8dc" d="M 43.449219 72.082031 C 43.449219 69.945312 45.1875 68.210938 47.335938 68.210938 L 68.078125 68.210938 C 70.226562 68.210938 71.96875 69.945312 71.96875 72.082031 L 71.96875 103.03125 C 71.96875 105.167969 70.226562 106.902344 68.078125 106.902344 L 47.335938 106.902344 C 45.1875 106.902344 43.449219 105.167969 43.449219 103.03125 Z M 51.226562 75.949219 L 51.226562 99.164062 L 64.1875 99.164062 L 64.1875 75.949219 Z M 51.226562 75.949219 " fill-opacity="1" fill-rule="evenodd"/><path fill="#b4bcc0" d="M 57.707031 68.210938 L 47.335938 68.210938 C 45.1875 68.210938 43.449219 69.945312 43.449219 72.082031 L 43.449219 103.03125 C 43.449219 105.167969 45.1875 106.902344 47.335938 106.902344 L 57.707031 106.902344 L 57.707031 99.164062 L 51.226562 99.164062 L 51.226562 75.949219 L 57.707031 75.949219 Z M 57.707031 68.210938 " fill-opacity="1" fill-rule="evenodd"/><g clip-path="url(#b5202aafbe)"><path fill="#b4bcc0" d="M 7.152344 72.082031 C 7.152344 69.945312 8.890625 68.210938 11.039062 68.210938 L 31.78125 68.210938 C 33.929688 68.210938 35.671875 69.945312 35.671875 72.082031 C 35.671875 74.21875 33.929688 75.949219 31.78125 75.949219 L 14.929688 75.949219 L 14.929688 83.6875 L 31.78125 83.6875 C 33.929688 83.6875 35.671875 85.421875 35.671875 87.558594 L 35.671875 103.03125 C 35.671875 105.167969 33.929688 106.902344 31.78125 106.902344 L 11.039062 106.902344 C 8.890625 106.902344 7.152344 105.167969 7.152344 103.03125 C 7.152344 100.894531 8.890625 99.164062 11.039062 99.164062 L 27.890625 99.164062 L 27.890625 91.425781 L 11.039062 91.425781 C 8.890625 91.425781 7.152344 89.695312 7.152344 87.558594 Z M 7.152344 72.082031 " fill-opacity="1" fill-rule="evenodd"/></g><path fill="#cfd8dc" d="M 64.1875 103.03125 C 64.1875 100.894531 65.929688 99.164062 68.078125 99.164062 L 78.449219 99.164062 C 80.597656 99.164062 82.335938 100.894531 82.335938 103.03125 C 82.335938 105.167969 80.597656 106.902344 78.449219 106.902344 L 68.078125 106.902344 C 65.929688 106.902344 64.1875 105.167969 64.1875 103.03125 Z M 64.1875 103.03125 " fill-opacity="1" fill-rule="evenodd"/><g clip-path="url(#24e4046b8a)"><path fill="#cfd8dc" d="M 88.820312 63.054688 C 90.96875 63.054688 92.707031 64.785156 92.707031 66.921875 L 92.707031 99.164062 L 104.375 99.164062 C 106.523438 99.164062 108.265625 100.894531 108.265625 103.03125 C 108.265625 105.167969 106.523438 106.902344 104.375 106.902344 L 88.820312 106.902344 C 86.671875 106.902344 84.929688 105.167969 84.929688 103.03125 L 84.929688 66.921875 C 84.929688 64.785156 86.671875 63.054688 88.820312 63.054688 Z M 88.820312 63.054688 " fill-opacity="1" fill-rule="evenodd"/></g><path fill="#5e94ff" d="M 36.964844 8.890625 C 34.820312 8.890625 33.078125 10.621094 33.078125 12.757812 L 33.078125 48.867188 C 33.078125 51.441406 34.488281 53.425781 36.015625 54.773438 C 37.546875 56.125 39.542969 57.167969 41.675781 57.960938 C 45.96875 59.5625 51.636719 60.476562 57.707031 60.476562 C 63.777344 60.476562 69.445312 59.5625 73.738281 57.960938 C 75.871094 57.167969 77.867188 56.125 79.398438 54.773438 C 80.925781 53.425781 82.335938 51.441406 82.335938 48.867188 L 82.335938 12.757812 C 82.335938 10.621094 80.597656 8.890625 78.449219 8.890625 Z M 36.964844 8.890625 " fill-opacity="1" fill-rule="nonzero"/><path fill="#5485e5" d="M 57.707031 8.890625 L 57.707031 60.476562 C 51.636719 60.476562 45.96875 59.5625 41.675781 57.960938 C 39.542969 57.167969 37.546875 56.125 36.015625 54.773438 C 34.488281 53.425781 33.078125 51.441406 33.078125 48.867188 L 33.078125 12.757812 C 33.078125 10.621094 34.820312 8.890625 36.964844 8.890625 Z M 57.707031 8.890625 " fill-opacity="1" fill-rule="evenodd"/><path fill="#7ea9ff" d="M 36.964844 8.890625 C 34.820312 8.890625 33.078125 10.621094 33.078125 12.757812 L 33.078125 30.8125 C 33.078125 33.386719 34.488281 35.371094 36.015625 36.71875 C 37.546875 38.070312 39.542969 39.113281 41.675781 39.90625 C 45.96875 41.507812 51.636719 42.421875 57.707031 42.421875 C 63.777344 42.421875 69.445312 41.507812 73.738281 39.90625 C 75.871094 39.113281 77.867188 38.070312 79.398438 36.71875 C 80.925781 35.371094 82.335938 33.386719 82.335938 30.8125 L 82.335938 12.757812 C 82.335938 10.621094 80.597656 8.890625 78.449219 8.890625 Z M 36.964844 8.890625 " fill-opacity="1" fill-rule="nonzero"/><path fill="#5e94ff" d="M 57.707031 8.890625 L 57.707031 42.421875 C 51.636719 42.421875 45.96875 41.507812 41.675781 39.90625 C 39.542969 39.113281 37.546875 38.070312 36.015625 36.71875 C 34.488281 35.371094 33.078125 33.386719 33.078125 30.8125 L 33.078125 12.757812 C 33.078125 10.621094 34.820312 8.890625 36.964844 8.890625 Z M 57.707031 8.890625 " fill-opacity="1" fill-rule="evenodd"/><g clip-path="url(#b848209dd7)"><path fill="#5e94ff" d="M 57.707031 1.152344 C 51.636719 1.152344 45.96875 2.0625 41.675781 3.664062 C 39.542969 4.460938 37.546875 5.5 36.015625 6.851562 C 34.488281 8.199219 33.078125 10.1875 33.078125 12.757812 C 33.078125 15.332031 34.488281 17.316406 36.015625 18.664062 C 37.546875 20.015625 39.542969 21.058594 41.675781 21.851562 C 45.96875 23.453125 51.636719 24.363281 57.707031 24.363281 C 63.777344 24.363281 69.445312 23.453125 73.738281 21.851562 C 75.871094 21.058594 77.867188 20.015625 79.398438 18.664062 C 80.925781 17.316406 82.335938 15.332031 82.335938 12.757812 C 82.335938 10.1875 80.925781 8.199219 79.398438 6.851562 C 77.867188 5.5 75.871094 4.460938 73.738281 3.664062 C 69.445312 2.0625 63.777344 1.152344 57.707031 1.152344 Z M 57.707031 1.152344 " fill-opacity="1" fill-rule="nonzero"/></g><g clip-path="url(#48600f2520)"><path fill="#5485e5" d="M 57.707031 1.152344 L 57.707031 24.363281 C 51.636719 24.363281 45.96875 23.453125 41.675781 21.851562 C 39.542969 21.058594 37.546875 20.015625 36.015625 18.664062 C 34.488281 17.316406 33.078125 15.332031 33.078125 12.757812 C 33.078125 10.1875 34.488281 8.199219 36.015625 6.851562 C 37.546875 5.5 39.542969 4.460938 41.675781 3.664062 C 45.96875 2.0625 51.636719 1.152344 57.707031 1.152344 Z M 57.707031 1.152344 " fill-opacity="1" fill-rule="evenodd"/></g></svg>