<svg xmlns="http://www.w3.org/2000/svg" xmlns:xlink="http://www.w3.org/1999/xlink" width="150" zoomAndPan="magnify" viewBox="0 0 112.5 112.499997" height="150" preserveAspectRatio="xMidYMid meet" version="1.0"><defs><clipPath id="137ba3b17a"><path d="M 9.574219 7.9375 L 105.574219 7.9375 L 105.574219 112.003906 L 9.574219 112.003906 Z M 9.574219 7.9375 " clip-rule="nonzero"/></clipPath></defs><path fill="#209237" d="M 101.449219 85.042969 L 101.449219 35.082031 L 57.574219 10.101562 L 13.699219 35.082031 L 13.699219 85.042969 L 57.574219 110.023438 Z M 101.449219 85.042969 " fill-opacity="1" fill-rule="nonzero"/><path fill="#ffffff" d="M 44.324219 79.996094 C 44.324219 83.128906 42.058594 85.597656 39.253906 85.597656 L 38.953125 85.597656 C 36.085938 85.597656 33.820312 82.992188 33.820312 79.996094 L 33.820312 40.125 C 33.820312 37.0625 36.324219 34.519531 39.785156 34.519531 C 42.359375 34.519531 45.28125 35.628906 47.070312 38.039062 L 65.191406 61.691406 C 67.015625 64.074219 70.835938 62.785156 70.835938 59.789062 L 70.835938 40.125 C 70.835938 36.992188 73.226562 34.519531 75.972656 34.519531 L 76.273438 34.519531 C 79.136719 34.519531 81.410156 37.128906 81.410156 40.125 L 81.410156 80 L 81.46875 80 C 81.46875 83.0625 78.898438 85.601562 75.382812 85.601562 C 72.871094 85.601562 70.007812 84.496094 68.214844 82.085938 L 49.273438 57.476562 C 47.671875 55.398438 44.339844 56.527344 44.339844 59.144531 L 44.339844 79.996094 Z M 44.324219 79.996094 " fill-opacity="1" fill-rule="nonzero"/><g clip-path="url(#137ba3b17a)"><path fill="#000000" d="M 57.574219 112.1875 C 57.042969 112.1875 56.511719 112.0625 56.03125 111.800781 L 11.34375 87.910156 C 10.28125 87.339844 9.617188 86.238281 9.617188 85.039062 L 9.617188 35.085938 C 9.617188 33.886719 10.28125 32.785156 11.34375 32.214844 L 56.03125 8.324219 C 57 7.808594 58.152344 7.808594 59.121094 8.324219 L 103.808594 32.214844 C 104.867188 32.785156 105.53125 33.886719 105.53125 35.085938 L 105.53125 85.039062 C 105.53125 86.238281 104.867188 87.339844 103.804688 87.910156 L 59.117188 111.800781 C 58.636719 112.0625 58.105469 112.1875 57.574219 112.1875 Z M 16.15625 83.09375 L 57.574219 105.234375 L 98.992188 83.09375 L 98.992188 37.03125 L 57.574219 14.894531 L 16.15625 37.03125 Z M 16.15625 83.09375 " fill-opacity="1" fill-rule="nonzero"/></g><path fill="#000000" d="M 75.480469 87.210938 C 71.617188 87.210938 67.957031 85.519531 65.695312 82.691406 L 48.8125 63.679688 L 48.8125 78.707031 C 48.8125 83.714844 43.945312 87.207031 39.582031 87.207031 C 34.507812 87.207031 30.328125 83.234375 30.328125 78.707031 L 30.328125 41.414062 C 30.328125 36.644531 34.40625 32.914062 39.613281 32.914062 C 43.546875 32.914062 47.246094 34.601562 49.507812 37.429688 L 66.277344 56.410156 L 66.277344 41.414062 C 66.277344 36.40625 71.070312 32.914062 75.375 32.914062 C 80.546875 32.914062 84.816406 36.882812 84.816406 41.414062 L 84.816406 78.710938 C 84.820312 83.480469 80.71875 87.210938 75.480469 87.210938 Z M 45.542969 51.828125 C 46.457031 51.828125 47.359375 52.214844 47.992188 52.925781 L 70.707031 78.5 C 73.488281 81.957031 78.28125 80.878906 78.28125 78.710938 L 78.28125 41.414062 C 78.28125 40.597656 76.933594 39.429688 75.679688 39.429688 C 74.207031 39.429688 72.816406 40.507812 72.816406 41.414062 L 72.816406 65.035156 C 72.816406 66.390625 71.972656 67.605469 70.699219 68.085938 C 69.441406 68.558594 67.992188 68.203125 67.089844 67.1875 L 44.5 41.613281 C 43.398438 40.242188 41.519531 39.429688 39.613281 39.429688 C 38.046875 39.429688 36.867188 40.28125 36.867188 41.414062 L 36.867188 78.707031 C 36.867188 79.550781 38.054688 80.691406 39.277344 80.691406 C 40.816406 80.691406 42.273438 79.613281 42.273438 78.707031 L 42.273438 55.085938 C 42.273438 53.730469 43.113281 52.515625 44.382812 52.039062 C 44.761719 51.894531 45.148438 51.828125 45.542969 51.828125 Z M 45.542969 51.828125 " fill-opacity="1" fill-rule="nonzero"/></svg>