<svg xmlns="http://www.w3.org/2000/svg" xmlns:xlink="http://www.w3.org/1999/xlink" width="150" zoomAndPan="magnify" viewBox="0 0 112.5 112.499997" height="150" preserveAspectRatio="xMidYMid meet" version="1.0"><defs><clipPath id="be9040dcb7"><path d="M 2.125 7.332031 L 110.125 7.332031 L 110.125 104.832031 L 2.125 104.832031 Z M 2.125 7.332031 " clip-rule="nonzero"/></clipPath><clipPath id="7c71ab78b6"><path d="M 14.800781 51 L 59.800781 51 L 59.800781 74.933594 L 14.800781 74.933594 Z M 14.800781 51 " clip-rule="nonzero"/></clipPath></defs><g clip-path="url(#be9040dcb7)"><path fill="#484c89" d="M 108.996094 7.589844 C 108.003906 7.785156 106.15625 8.152344 104.710938 9.773438 C 103.269531 11.394531 102.230469 14.269531 101.832031 17.957031 C 101.4375 21.648438 101.679688 26.15625 101.410156 29.824219 C 101.136719 33.488281 100.34375 36.308594 98.90625 37.847656 C 97.46875 39.378906 95.386719 39.628906 93.277344 39.15625 C 91.167969 38.683594 89.039062 37.496094 86.808594 35.691406 C 84.574219 33.882812 82.246094 31.457031 80.261719 30.167969 C 78.28125 28.878906 76.644531 28.730469 74.535156 29.25 C 72.425781 29.773438 69.851562 30.960938 68.015625 31.828125 C 66.183594 32.695312 65.089844 33.238281 63.703125 33.488281 C 62.3125 33.734375 60.628906 33.683594 59.015625 33.933594 C 57.402344 34.179688 55.867188 34.726562 53.8125 36.035156 C 51.828125 37.300781 49.363281 39.277344 47.898438 40.96875 C 45.261719 40.832031 43.332031 40.5625 41.144531 40.164062 C 38.738281 39.726562 36.007812 39.132812 31.695312 39.5 C 27.382812 39.875 21.484375 41.210938 16.699219 43.714844 C 11.914062 46.214844 8.246094 49.878906 6.1875 53.894531 C 5.648438 54.945312 5.21875 56.019531 4.886719 57.109375 C 4.363281 58.046875 3.921875 59.019531 3.640625 60 C 3.449219 60.65625 3.066406 61.625 2.988281 62.375 C 2.777344 64.453125 2.585938 66.652344 2.890625 68.660156 L 3.4375 86.324219 C 3.335938 86.875 3.160156 87.269531 2.972656 87.644531 C 2.375 88.828125 2.28125 91.214844 2.46875 91.589844 C 2.753906 91.585938 2.707031 90.90625 3.5 90.839844 C 2.121094 93.4375 2.5625 92.714844 2.613281 94.933594 C 3.492188 94.703125 3.820312 93.175781 4.210938 92.441406 C 5.535156 89.917969 5.285156 90.007812 5.285156 87.101562 C 5.285156 86.15625 4.933594 85.773438 4.621094 85.09375 C 4.003906 83.761719 4.398438 79.289062 4.390625 77.488281 C 4.378906 75.359375 4.535156 72.917969 4.644531 70.570312 C 5.015625 72.304688 5.53125 73.929688 6.183594 75.316406 C 6.292969 77.992188 6.414062 80.679688 7.136719 83.117188 C 8.378906 87.328125 8.492188 86.378906 8.492188 91.375 C 8.492188 92.832031 8.152344 93.945312 7.933594 95.265625 C 7.703125 96.644531 7.246094 98.046875 7.246094 99.5625 C 7.246094 100.300781 7.597656 100.574219 7.597656 101.34375 C 7.597656 102.742188 7.421875 103.371094 7.421875 104.726562 C 9.394531 104.726562 10.828125 104.613281 12.773438 104.554688 C 13.789062 104.523438 19.265625 104.523438 17.480469 102.871094 C 16.542969 101.992188 15.832031 101.195312 15.175781 100.007812 C 14.777344 99.285156 14.953125 99.660156 14.898438 98.6875 C 14.863281 98.0625 14.804688 97.765625 14.703125 97.097656 C 14.261719 94.160156 13.847656 93.414062 14.621094 90.195312 C 15.03125 88.484375 14.785156 87.984375 15.691406 86.640625 C 16.011719 86.160156 16.214844 85.730469 16.507812 85.320312 C 16.835938 84.851562 17.199219 84.542969 17.625 84.117188 C 18.257812 83.492188 19.234375 82.164062 20.074219 81.941406 C 20.222656 82.492188 20.4375 82.574219 20.789062 83.011719 C 21.9375 84.453125 22.175781 84.652344 22.875 86.445312 C 24.136719 89.667969 24.265625 92.636719 24.007812 96.015625 C 23.628906 100.980469 24.257812 98.457031 24.839844 101.21875 C 25.078125 102.351562 24.980469 102.914062 25.421875 103.839844 L 33.832031 103.875 C 36.8125 103.585938 36.414062 102.367188 33.867188 100.386719 C 31.054688 98.199219 29.863281 91.164062 29.695312 87.449219 C 29.648438 86.464844 30.1875 84.753906 30.410156 83.894531 L 31.195312 81.625 C 33.125 81.730469 35.59375 81.898438 38.289062 81.65625 C 41.863281 81.332031 45.824219 80.289062 48.234375 79.078125 C 50.636719 77.863281 51.480469 76.480469 52.195312 76.328125 C 52.917969 76.179688 53.511719 77.269531 53.882812 79.226562 C 54.257812 81.183594 54.40625 84.003906 54.476562 87.71875 C 54.554688 91.433594 54.554688 96.042969 54.234375 98.765625 C 53.910156 101.488281 53.261719 102.332031 53.117188 103.027344 C 52.96875 103.71875 53.3125 104.265625 54.976562 104.535156 C 56.636719 104.808594 59.613281 104.808594 61.296875 104.4375 C 62.980469 104.066406 63.378906 103.320312 62.910156 102.355469 C 62.4375 101.390625 61.097656 100.199219 60.800781 98.539062 C 60.503906 96.882812 61.25 94.753906 61.671875 92.300781 C 62.089844 89.851562 62.191406 87.074219 62.488281 85.988281 C 62.785156 84.898438 63.28125 85.492188 63.949219 86.40625 C 64.617188 87.324219 65.460938 88.5625 66.003906 89.875 C 66.554688 91.183594 66.800781 92.574219 66.75 93.761719 C 66.699219 94.949219 66.355469 95.941406 65.960938 96.808594 C 65.5625 97.675781 65.117188 98.417969 64.988281 99.308594 C 64.867188 100.199219 65.066406 101.238281 65.808594 101.984375 C 66.554688 102.726562 67.84375 103.171875 69.230469 103.472656 C 70.617188 103.765625 72.105469 103.914062 72.976562 103.492188 C 73.839844 103.070312 74.089844 102.082031 73.863281 101.015625 C 73.640625 99.957031 72.949219 98.8125 72.824219 97.550781 C 72.703125 96.285156 73.148438 94.902344 73.269531 93.265625 C 73.398438 91.632812 73.199219 89.75 72.476562 86.929688 C 71.761719 84.105469 70.523438 80.339844 69.851562 77.320312 C 69.179688 74.296875 69.082031 72.019531 69.429688 69.839844 C 69.730469 67.941406 70.375 66.113281 69.527344 62.5 C 70.132812 62.949219 70.765625 63.332031 71.363281 63.5 C 72.230469 63.75 73.023438 63.550781 73.691406 62.609375 C 74.363281 61.667969 74.90625 59.984375 75.429688 58.796875 C 75.949219 57.609375 76.445312 56.914062 77.089844 56.570312 C 77.734375 56.21875 78.527344 56.21875 79.492188 55.8125 C 80.453125 55.402344 81.578125 54.585938 82.691406 54.394531 C 83.800781 54.210938 84.890625 54.65625 85.261719 54.554688 C 85.632812 54.457031 85.289062 53.8125 84.550781 53.308594 C 83.8125 52.800781 82.683594 52.429688 82.484375 52.066406 C 82.285156 51.703125 83.019531 51.351562 83.59375 51.519531 C 84.171875 51.683594 84.59375 52.371094 86.097656 52.882812 C 87.605469 53.398438 90.195312 53.738281 92.4375 53.757812 C 94.683594 53.773438 96.578125 53.460938 97.960938 52.984375 C 99.347656 52.507812 100.214844 51.863281 99.675781 51.644531 C 99.136719 51.429688 97.1875 51.640625 95.484375 51.589844 C 93.78125 51.539062 92.316406 51.234375 91.304688 50.691406 C 90.296875 50.152344 89.734375 49.375 89.484375 49.113281 C 89.230469 48.847656 89.277344 49.097656 91.527344 48.507812 C 93.773438 47.921875 98.222656 46.5 101.320312 44.402344 C 104.410156 42.304688 106.144531 39.527344 106.914062 36.632812 C 107.679688 33.738281 107.484375 30.714844 106.988281 27.695312 C 106.492188 24.671875 105.699219 21.648438 105.355469 19.421875 C 105.003906 17.195312 105.105469 15.757812 105.675781 14.398438 C 106.242188 13.03125 107.285156 11.742188 108.152344 11.003906 C 109.023438 10.261719 109.714844 10.0625 109.910156 9.816406 C 110.109375 9.566406 109.816406 9.265625 109.789062 8.851562 C 109.765625 8.429688 110.011719 7.882812 110.066406 7.625 C 110.121094 7.363281 109.988281 7.390625 108.996094 7.589844 Z M 108.996094 7.589844 " fill-opacity="1" fill-rule="evenodd"/></g><g clip-path="url(#7c71ab78b6)"><path fill="#ffffff" d="M 37.300781 51.027344 C 24.875 51.027344 14.800781 56.339844 14.800781 62.90625 C 14.800781 69.472656 24.875 74.789062 37.300781 74.789062 C 49.722656 74.789062 59.800781 69.472656 59.800781 62.90625 C 59.800781 56.339844 49.722656 51.027344 37.300781 51.027344 Z M 37.300781 52.214844 C 49.351562 52.214844 58.617188 57.308594 58.617188 62.90625 C 58.617188 68.503906 49.34375 73.601562 37.300781 73.601562 C 25.246094 73.601562 15.980469 68.503906 15.980469 62.90625 C 15.980469 57.308594 25.253906 52.214844 37.300781 52.214844 Z M 34.566406 54.566406 L 32.292969 66.34375 L 34.832031 66.34375 L 36.140625 59.59375 C 38.207031 59.59375 39.0625 59.511719 39.4375 59.917969 C 39.824219 60.335938 39.625 60.796875 38.554688 66.34375 L 41.128906 66.34375 C 42.242188 60.609375 42.734375 59.390625 41.703125 58.441406 C 40.726562 57.535156 38.695312 57.695312 36.503906 57.695312 L 37.105469 54.566406 Z M 23.921875 57.703125 L 21.648438 69.484375 L 24.199219 69.484375 L 24.804688 66.355469 C 27.664062 66.355469 29.441406 66.5625 31.082031 65.019531 C 32.898438 63.34375 33.371094 60.363281 32.074219 58.871094 C 31.398438 58.085938 30.3125 57.703125 28.839844 57.703125 Z M 43.878906 57.703125 L 41.601562 69.484375 L 44.160156 69.484375 L 44.765625 66.355469 C 47.769531 66.355469 49.433594 66.53125 51.039062 65.019531 C 52.855469 63.34375 53.328125 60.363281 52.035156 58.871094 C 51.359375 58.085938 50.273438 57.703125 48.800781 57.703125 Z M 27.929688 59.558594 C 29.523438 59.605469 30.4375 59.941406 30.050781 61.953125 C 29.5 64.785156 27.5625 64.492188 25.175781 64.492188 L 26.128906 59.5625 C 26.789062 59.5625 27.394531 59.542969 27.929688 59.558594 Z M 47.886719 59.558594 C 49.484375 59.605469 50.386719 59.941406 50.003906 61.953125 C 49.445312 64.824219 47.449219 64.492188 45.128906 64.492188 L 46.082031 59.5625 C 46.746094 59.5625 47.355469 59.542969 47.886719 59.558594 Z M 47.886719 59.558594 " fill-opacity="1" fill-rule="nonzero"/></g></svg>